<svg id="Calque_1" data-name="Calque 1" xmlns="http://www.w3.org/2000/svg" xmlns:xlink="http://www.w3.org/1999/xlink" viewBox="0 0 31.52 26.68"><defs><style>.cls-1{fill:url(#linear-gradient);}.cls-2{fill:url(#linear-gradient-2);}.cls-3{fill:url(#linear-gradient-3);}.cls-4{fill:url(#linear-gradient-4);}.cls-5{fill:url(#linear-gradient-5);}.cls-6{fill:url(#linear-gradient-6);}.cls-7{fill:url(#linear-gradient-7);}.cls-8{fill:url(#linear-gradient-8);}.cls-9{fill:url(#linear-gradient-9);}.cls-10{fill:url(#linear-gradient-10);}.cls-11{fill:url(#linear-gradient-11);}.cls-12{fill:url(#linear-gradient-12);}.cls-13{fill:url(#linear-gradient-13);}.cls-14{fill:url(#linear-gradient-14);}.cls-15{fill:url(#linear-gradient-15);}.cls-16{fill:url(#linear-gradient-16);}.cls-17{fill:url(#linear-gradient-17);}.cls-18{fill:url(#linear-gradient-18);}.cls-19{fill:url(#linear-gradient-19);}.cls-20{fill:url(#linear-gradient-20);}.cls-21{fill:url(#linear-gradient-21);}.cls-22{fill:url(#linear-gradient-22);}.cls-23{fill:url(#linear-gradient-23);}.cls-24{fill:url(#linear-gradient-24);}.cls-25{fill:url(#linear-gradient-25);}.cls-26{fill:url(#linear-gradient-26);}.cls-27{fill:url(#linear-gradient-27);}.cls-28{fill:url(#linear-gradient-28);}.cls-29{fill:url(#linear-gradient-29);}.cls-30{fill:url(#linear-gradient-30);}.cls-31{fill:url(#linear-gradient-31);}.cls-32{fill:url(#linear-gradient-32);}.cls-33{fill:url(#linear-gradient-33);}.cls-34{fill:url(#linear-gradient-34);}.cls-35{fill:url(#linear-gradient-35);}.cls-36{fill:url(#linear-gradient-36);}.cls-37{fill:url(#linear-gradient-37);}.cls-38{fill:url(#linear-gradient-38);}.cls-39{fill:url(#linear-gradient-39);}.cls-40{fill:url(#linear-gradient-40);}.cls-41{fill:url(#linear-gradient-41);}.cls-42{fill:url(#linear-gradient-42);}.cls-43{fill:url(#linear-gradient-43);}.cls-44{fill:url(#linear-gradient-44);}.cls-45{fill:url(#linear-gradient-45);}.cls-46{fill:url(#linear-gradient-46);}.cls-47{fill:url(#linear-gradient-47);}.cls-48{fill:url(#linear-gradient-48);}.cls-49{fill:url(#linear-gradient-49);}.cls-50{fill:url(#linear-gradient-50);}.cls-51{fill:url(#linear-gradient-51);}.cls-52{fill:url(#linear-gradient-52);}.cls-53{fill:url(#linear-gradient-53);}.cls-54{fill:url(#linear-gradient-54);}.cls-55{fill:url(#linear-gradient-55);}.cls-56{fill:url(#linear-gradient-56);}.cls-57{fill:url(#linear-gradient-57);}.cls-58{fill:url(#linear-gradient-58);}.cls-59{fill:url(#linear-gradient-59);}.cls-60{fill:url(#linear-gradient-60);}.cls-61{fill:url(#linear-gradient-61);}.cls-62{fill:url(#linear-gradient-62);}</style><linearGradient id="linear-gradient" x1="16.03" y1="28.33" x2="16.03" y2="1.65" gradientUnits="userSpaceOnUse"><stop offset="0.21" stop-color="#054674"/><stop offset="0.47" stop-color="#0272ab"/><stop offset="0.7" stop-color="#0098da"/></linearGradient><linearGradient id="linear-gradient-2" x1="9.48" y1="4.93" x2="9.48" y2="4.61" xlink:href="#linear-gradient"/><linearGradient id="linear-gradient-3" x1="22.06" y1="4.88" x2="22.06" y2="4.56" xlink:href="#linear-gradient"/><linearGradient id="linear-gradient-4" x1="23.27" y1="18.5" x2="23.27" y2="18.18" xlink:href="#linear-gradient"/><linearGradient id="linear-gradient-5" x1="8.3" y1="18.48" x2="8.3" y2="18.16" xlink:href="#linear-gradient"/><linearGradient id="linear-gradient-6" x1="21.11" y1="2.16" x2="21.11" y2="1.96" xlink:href="#linear-gradient"/><linearGradient id="linear-gradient-7" x1="10.73" y1="0.52" x2="10.73" y2="0.32" xlink:href="#linear-gradient"/><linearGradient id="linear-gradient-8" x1="9.95" y1="24.86" x2="9.95" y2="24.54" xlink:href="#linear-gradient"/><linearGradient id="linear-gradient-9" x1="22.15" y1="24.86" x2="22.15" y2="24.54" xlink:href="#linear-gradient"/><linearGradient id="linear-gradient-10" x1="15.73" y1="24.39" x2="15.73" y2="24.07" xlink:href="#linear-gradient"/><linearGradient id="linear-gradient-11" x1="14.45" y1="23.88" x2="14.45" y2="23.7" xlink:href="#linear-gradient"/><linearGradient id="linear-gradient-12" x1="17.2" y1="24.23" x2="17.2" y2="24.05" xlink:href="#linear-gradient"/><linearGradient id="linear-gradient-13" x1="17.91" y1="21.28" x2="17.91" y2="21.09" xlink:href="#linear-gradient"/><linearGradient id="linear-gradient-14" x1="14.1" y1="19.87" x2="14.1" y2="19.69" xlink:href="#linear-gradient"/><linearGradient id="linear-gradient-15" x1="17.29" y1="17.24" x2="17.29" y2="17.06" xlink:href="#linear-gradient"/><linearGradient id="linear-gradient-16" x1="19.89" y1="11.49" x2="19.89" y2="11.31" xlink:href="#linear-gradient"/><linearGradient id="linear-gradient-17" x1="23.15" y1="13.25" x2="23.15" y2="13.06" xlink:href="#linear-gradient"/><linearGradient id="linear-gradient-18" x1="24.19" y1="15.36" x2="24.19" y2="15.23" xlink:href="#linear-gradient"/><linearGradient id="linear-gradient-19" x1="25.18" y1="13.06" x2="25.18" y2="12.94" xlink:href="#linear-gradient"/><linearGradient id="linear-gradient-20" x1="23.06" y1="15.66" x2="23.06" y2="15.53" xlink:href="#linear-gradient"/><linearGradient id="linear-gradient-21" x1="20.86" y1="15.35" x2="20.86" y2="15.22" xlink:href="#linear-gradient"/><linearGradient id="linear-gradient-22" x1="24.36" y1="11.52" x2="24.36" y2="11.34" xlink:href="#linear-gradient"/><linearGradient id="linear-gradient-23" x1="26.3" y1="12.78" x2="26.3" y2="12.6" xlink:href="#linear-gradient"/><linearGradient id="linear-gradient-24" x1="27.97" y1="12.43" x2="27.97" y2="12.25" xlink:href="#linear-gradient"/><linearGradient id="linear-gradient-25" x1="29.31" y1="11.71" x2="29.31" y2="11.53" xlink:href="#linear-gradient"/><linearGradient id="linear-gradient-26" x1="30.16" y1="9.82" x2="30.16" y2="9.64" xlink:href="#linear-gradient"/><linearGradient id="linear-gradient-27" x1="30.15" y1="7.93" x2="30.15" y2="7.75" xlink:href="#linear-gradient"/><linearGradient id="linear-gradient-28" x1="26.84" y1="8.25" x2="26.84" y2="8.07" xlink:href="#linear-gradient"/><linearGradient id="linear-gradient-29" x1="24.14" y1="8.88" x2="24.14" y2="8.7" xlink:href="#linear-gradient"/><linearGradient id="linear-gradient-30" x1="21.62" y1="10.06" x2="21.62" y2="9.88" xlink:href="#linear-gradient"/><linearGradient id="linear-gradient-31" x1="12.16" y1="11.5" x2="12.16" y2="11.31" xlink:href="#linear-gradient"/><linearGradient id="linear-gradient-32" x1="8.9" y1="13.25" x2="8.9" y2="13.07" xlink:href="#linear-gradient"/><linearGradient id="linear-gradient-33" x1="7.59" y1="13.71" x2="7.59" y2="13.58" xlink:href="#linear-gradient"/><linearGradient id="linear-gradient-34" x1="6.61" y1="14.72" x2="6.61" y2="14.59" xlink:href="#linear-gradient"/><linearGradient id="linear-gradient-35" x1="8.73" y1="14.01" x2="8.73" y2="13.88" xlink:href="#linear-gradient"/><linearGradient id="linear-gradient-36" x1="11.19" y1="15.35" x2="11.19" y2="15.22" xlink:href="#linear-gradient"/><linearGradient id="linear-gradient-37" x1="7.43" y1="13.17" x2="7.43" y2="12.99" xlink:href="#linear-gradient"/><linearGradient id="linear-gradient-38" x1="5.75" y1="12.78" x2="5.75" y2="12.6" xlink:href="#linear-gradient"/><linearGradient id="linear-gradient-39" x1="4.08" y1="12.43" x2="4.08" y2="12.25" xlink:href="#linear-gradient"/><linearGradient id="linear-gradient-40" x1="2.74" y1="11.71" x2="2.74" y2="11.53" xlink:href="#linear-gradient"/><linearGradient id="linear-gradient-41" x1="1.89" y1="9.82" x2="1.89" y2="9.64" xlink:href="#linear-gradient"/><linearGradient id="linear-gradient-42" x1="1.9" y1="7.94" x2="1.9" y2="7.75" xlink:href="#linear-gradient"/><linearGradient id="linear-gradient-43" x1="5.21" y1="8.25" x2="5.21" y2="8.07" xlink:href="#linear-gradient"/><linearGradient id="linear-gradient-44" x1="7.91" y1="8.88" x2="7.91" y2="8.7" xlink:href="#linear-gradient"/><linearGradient id="linear-gradient-45" x1="10.43" y1="10.07" x2="10.43" y2="9.88" xlink:href="#linear-gradient"/><linearGradient id="linear-gradient-46" x1="15.72" y1="11.06" x2="15.72" y2="9.68" xlink:href="#linear-gradient"/><linearGradient id="linear-gradient-47" x1="15.39" y1="10.37" x2="15.39" y2="10.25" xlink:href="#linear-gradient"/><linearGradient id="linear-gradient-48" x1="17.38" y1="13.96" x2="17.38" y2="9.98" xlink:href="#linear-gradient"/><linearGradient id="linear-gradient-49" x1="16.75" y1="10.33" x2="16.75" y2="10.21" xlink:href="#linear-gradient"/><linearGradient id="linear-gradient-50" x1="17.63" y1="8.23" x2="17.63" y2="7.64" xlink:href="#linear-gradient"/><linearGradient id="linear-gradient-51" x1="17.37" y1="6.35" x2="17.37" y2="6.22" xlink:href="#linear-gradient"/><linearGradient id="linear-gradient-52" x1="14.38" y1="8.23" x2="14.38" y2="7.64" xlink:href="#linear-gradient"/><linearGradient id="linear-gradient-53" x1="14.38" y1="8" x2="14.38" y2="7.87" xlink:href="#linear-gradient"/><linearGradient id="linear-gradient-54" x1="16.75" y1="13.73" x2="16.75" y2="13.6" xlink:href="#linear-gradient"/><linearGradient id="linear-gradient-55" x1="17.68" y1="12.15" x2="17.68" y2="12.02" xlink:href="#linear-gradient"/><linearGradient id="linear-gradient-56" x1="17.02" y1="12.57" x2="17.02" y2="12.44" xlink:href="#linear-gradient"/><linearGradient id="linear-gradient-57" x1="14.8" y1="11.04" x2="14.8" y2="10.91" xlink:href="#linear-gradient"/><linearGradient id="linear-gradient-58" x1="14.46" y1="12.09" x2="14.46" y2="11.96" xlink:href="#linear-gradient"/><linearGradient id="linear-gradient-59" x1="15.53" y1="13.87" x2="15.53" y2="13.74" xlink:href="#linear-gradient"/><linearGradient id="linear-gradient-60" x1="14.85" y1="14.1" x2="14.85" y2="10.02" xlink:href="#linear-gradient"/><linearGradient id="linear-gradient-61" x1="16.07" y1="12.38" x2="16.07" y2="10.71" xlink:href="#linear-gradient"/><linearGradient id="linear-gradient-62" x1="16.05" y1="13.42" x2="16.05" y2="12.21" xlink:href="#linear-gradient"/></defs><title>beedigitalico</title><path class="cls-1" d="M31.74,7.08V7h-.1c-.47,0-.95-.09-1.42-.1a17.14,17.14,0,0,0-6.82,1.2,20.52,20.52,0,0,0-4.75,2.75,2.36,2.36,0,0,0-.26-.36l1.42-2.3,2-1.28a.71.71,0,0,0,.48.19.69.69,0,0,0,.7-.69.7.7,0,1,0-1.39,0,.34.34,0,0,0,0,.1L19.47,7.83l-1.41,2.29A3,3,0,0,0,16.8,9.5a3.2,3.2,0,0,0,1-.42,1.55,1.55,0,0,0,.74-1.26c0-.38-.33-.77-1-1.15A8,8,0,0,1,19,4a8.1,8.1,0,0,1,1.87-1.68.37.37,0,0,0,.27.11.39.39,0,1,0-.36-.22A8.28,8.28,0,0,0,18.86,4,7.9,7.9,0,0,0,17.44,6.6l-.15-.08A9.41,9.41,0,0,0,16.1,6H16a9.41,9.41,0,0,0-1.19.51l-.15.08A7.94,7.94,0,0,0,13.25,4a8.15,8.15,0,0,0-1.9-1.71.37.37,0,0,0,0-.18.4.4,0,1,0-.8,0,.4.4,0,0,0,.68.3,7.88,7.88,0,0,1,1.87,1.68,8.11,8.11,0,0,1,1.41,2.62c-.65.39-1,.77-1,1.15a1.55,1.55,0,0,0,.74,1.26,3.2,3.2,0,0,0,1,.42,2.93,2.93,0,0,0-1.35.71L12.55,7.93,10.42,6.6a1.1,1.1,0,0,0,0-.18.7.7,0,1,0-.69.69A.68.68,0,0,0,10.17,7l2.05,1.28,1.42,2.3-.19.29A20,20,0,0,0,8.66,8.07,16.94,16.94,0,0,0,1.84,6.86c-.47,0-.95,0-1.42.1H.32v.11a6.25,6.25,0,0,0,1,4.4,5.93,5.93,0,0,0,3.42,2.2,2.61,2.61,0,0,0,1,1.44,5.12,5.12,0,0,0,3.06,1.11h.35a7.37,7.37,0,0,0,2.58-.46l-.41.25-.55.34,0,0-2,2.84H8.59a.74.74,0,1,0,.73.74.77.77,0,0,0-.13-.42l1.87-2.71.5-.31c.76-.46,1.83-1,3-1.74a4.58,4.58,0,0,0-1.18,1.49,7.22,7.22,0,0,0-.49,1.16l-3,2.34L9.66,24a.76.76,0,0,0-.46.69.75.75,0,0,0,1.49,0,.72.72,0,0,0-.45-.68l.19-3.94,2.18-1.69a12.49,12.49,0,0,0-.29,2.73,7.55,7.55,0,0,0,.56,2.76,10.73,10.73,0,0,0,1.2,2.22,13.19,13.19,0,0,0,1.75,2l.2.18.19-.18a12.07,12.07,0,0,0,1.78-2,11.25,11.25,0,0,0,1.23-2.23,7.55,7.55,0,0,0,.56-2.76,12.41,12.41,0,0,0-.29-2.7l2.16,1.68L21.85,24a.73.73,0,0,0-.44.68.74.74,0,1,0,1.48,0,.76.76,0,0,0-.45-.69l-.2-4.21-3-2.32a6,6,0,0,0-1.38-2.4l0-.05c1.05.62,2,1.1,2.71,1.53l.5.3,1.87,2.72a.72.72,0,1,0,.6-.33h-.11l-1.95-2.83-.05,0c-.2-.11-.38-.23-.56-.34l-.47-.28h0a7.47,7.47,0,0,0,2.59.46h.35a5.12,5.12,0,0,0,3.06-1.11,2.56,2.56,0,0,0,1-1.44,5.87,5.87,0,0,0,3.42-2.2A6.25,6.25,0,0,0,31.74,7.08ZM22.32,5.89a.48.48,0,1,1-.48.48A.48.48,0,0,1,22.32,5.89ZM21.11,1.72a.34.34,0,1,1-.33.34A.34.34,0,0,1,21.11,1.72ZM11,2.41a.34.34,0,1,1,.33-.34A.34.34,0,0,1,11,2.41Zm-1.73,4a.49.49,0,1,1,1,0,.5.5,0,0,1-.05.21l0,.08a.47.47,0,0,1-.38.19A.49.49,0,0,1,9.26,6.42Zm-.67,14A.44.44,0,1,1,9,20,.44.44,0,0,1,8.59,20.41Zm1.79,4.29a.44.44,0,0,1-.87,0,.44.44,0,1,1,.87,0Zm12.21,0a.44.44,0,0,1-.88,0,.44.44,0,0,1,.88,0ZM23.91,20a.43.43,0,0,1-.42.44.44.44,0,0,1-.43-.44.43.43,0,0,1,.43-.43A.42.42,0,0,1,23.91,20ZM18.28,7.82a1.29,1.29,0,0,1-.64,1c-.46-.31-.69-.66-.66-1s.28-.59.74-.8C18.05,7.31,18.28,7.56,18.28,7.82ZM16.06,6.27a8.74,8.74,0,0,1,1.5.7c-.58.3-.73.65-.75.89A1.3,1.3,0,0,0,17.49,9a3.08,3.08,0,0,1-2.87,0,1.31,1.31,0,0,0,.68-1.11c0-.24-.17-.59-.75-.89A7.25,7.25,0,0,1,16.06,6.27ZM13.83,7.82c0-.26.23-.51.56-.74.46.21.72.49.75.8s-.21.68-.67,1A1.29,1.29,0,0,1,13.83,7.82Zm2.23,2A2.39,2.39,0,0,1,18.59,12a2.4,2.4,0,0,1-2.53,2.22A2.4,2.4,0,0,1,13.52,12,2.4,2.4,0,0,1,16.06,9.79ZM18.21,14l0,0a20.18,20.18,0,0,0,3.63.34l.83,0-.65.51ZM16,25.37a.5.5,0,0,1,.5.51.5.5,0,0,1-.5.5.5.5,0,0,1-.51-.5A.51.51,0,0,1,16,25.37ZM10.05,14.78l-.64-.51.82,0A19.31,19.31,0,0,0,13.86,14l0,0ZM1.5,11.33A6,6,0,0,1,.56,7.21q.65-.08,1.29-.09a17.64,17.64,0,0,1,11.49,4,2.25,2.25,0,0,0-.2.93,2.4,2.4,0,0,0,.69,1.66l-1-.48-.3-.42a3.54,3.54,0,0,1-.3-.4V12h0v-.17a.38.38,0,0,0,.28-.37.37.37,0,1,0-.45.37v.4h0v.28l.32.43.11.15-2.34-1.16c0-.15,0-.28-.06-.4s0-.27-.07-.42l.32-.71h.06a.38.38,0,1,0,0-.75.38.38,0,0,0-.37.37.37.37,0,0,0,.16.31L9.88,11v0c0,.17,0,.31.08.44s0,.19,0,.29l-1.41-.7-.51-2a.38.38,0,1,0-.17,0h0L8.39,11,6,9.8l-.06-1-.3-.36h0l-.1-.12a.36.36,0,0,0,.06-.2.38.38,0,1,0-.38.37.42.42,0,0,0,.2,0l.26.31h0l.09.11.06.81L2.26,8a.37.37,0,0,0,0-.11.37.37,0,1,0-.09.25L4.73,9.36l-.6.66-.92-.16-1-.17a.38.38,0,0,0-.37-.33.38.38,0,0,0,0,.75.38.38,0,0,0,.35-.25l.94.16.16,0,0,.83-.36.42a.41.41,0,0,0-.19-.05.36.36,0,1,0,.31.16l.4-.46,0-.88.64.12h.05l.69-.77L7,10.48l-.75,1.23-1-.23-1,.54a.46.46,0,0,0-.2,0,.37.37,0,1,0,.37.37.38.38,0,0,0,0-.19l.86-.49.9.2-.3.48a.2.2,0,0,0-.11,0,.37.37,0,1,0,.37.37A.39.39,0,0,0,6,12.42l.75-1.23.81.51-.18,1a.38.38,0,1,0,.41.37.37.37,0,0,0-.24-.35l.19-1.11-.9-.57.3-.49,3.69,1.82-.52.66-.52,0H9.26a.37.37,0,0,0-.36-.29.38.38,0,0,0,0,.75.36.36,0,0,0,.36-.29l.54,0h.61l.58-.75,2.59,1.28A19.61,19.61,0,0,1,8.93,14C6.2,13.8,3.11,13.59,1.5,11.33Zm10.66.38a.31.31,0,1,1,.3-.31A.3.3,0,0,1,12.16,11.71Zm-1.79-1.44-.12,0a.33.33,0,0,1-.12-.25.31.31,0,0,1,.61,0,.31.31,0,0,1-.31.31ZM7.91,9.09a.3.3,0,1,1,0-.6.3.3,0,1,1,0,.6Zm-2.7-.63a.3.3,0,1,1,.31-.3A.3.3,0,0,1,5.21,8.46ZM1.9,8.15a.31.31,0,1,1,.3-.31A.3.3,0,0,1,1.9,8.15Zm.29,1.58a.3.3,0,1,1-.6,0,.3.3,0,1,1,.6,0ZM3,11.62a.31.31,0,1,1-.3-.3A.3.3,0,0,1,3,11.62Zm1.34.72a.31.31,0,1,1-.3-.3A.3.3,0,0,1,4.38,12.34Zm1.67.35a.31.31,0,1,1-.3-.3A.3.3,0,0,1,6.05,12.69Zm1.38.09a.3.3,0,1,1-.31.3A.3.3,0,0,1,7.43,12.78Zm1.77.38a.3.3,0,0,1-.6,0,.3.3,0,1,1,.6,0ZM5.84,14.92A2.26,2.26,0,0,1,5,13.76a22,22,0,0,0,3.4.45l-1.58.31a.27.27,0,0,0-.22-.13.26.26,0,1,0,.26.26s0,0,0-.06l1.82-.36.23,0,.37,0,.68.53-1.87.39A.25.25,0,0,0,7.86,15a.26.26,0,1,0,.26.26s0,0,0,0L9.57,15l0,.33-.39.16a.27.27,0,0,0-.21-.1.26.26,0,1,0,.26.26.29.29,0,0,0,0-.09l.44-.19,0-.38,2.22-.47v.28l-.26.17a2.2,2.2,0,0,1-.25.17.27.27,0,0,0-.17-.06.26.26,0,1,0,.26.26.29.29,0,0,0,0-.14l.25-.17.26-.19h0v-.32l1.86-.4a4,4,0,0,1-2.22,1.48C10.29,16,7.64,16.45,5.84,14.92Zm1-.27a.21.21,0,0,1-.21.21.21.21,0,0,1-.21-.21.21.21,0,0,1,.21-.21A.22.22,0,0,1,6.82,14.65Zm1.24.62h0v0a.21.21,0,0,1-.21.21.21.21,0,0,1,0-.42.22.22,0,0,1,.2.14Zm1.14.33a.21.21,0,0,1-.21.21.22.22,0,0,1-.21-.21A.21.21,0,0,1,9,15.39.21.21,0,0,1,9.2,15.6Zm2.2-.31a.21.21,0,0,1-.42,0,.21.21,0,1,1,.42,0Zm2.49-.93h0Zm1.19.09h0Zm4.12,6.67a8.45,8.45,0,0,1-1.67,4.64A13.63,13.63,0,0,1,16,27.53a13.24,13.24,0,0,1-1.47-1.77,8.52,8.52,0,0,1-1.65-4.64c0-3.36,1.32-6.12,3-6.28v1.71L14,17.87l0,1.53a.4.4,0,1,0,.51.38.41.41,0,0,0-.29-.38l0-1.42,1.64-1.17v4l-1.3,1-.19,1.57a.41.41,0,0,0-.34.4.4.4,0,0,0,.79,0,.4.4,0,0,0-.24-.37l.18-1.49,1.1-.84v4.12a.68.68,0,0,0-.55.67.67.67,0,0,0,1.34,0,.68.68,0,0,0-.58-.67V23.08l.72.19.19.53a.39.39,0,0,0-.2.34.4.4,0,0,0,.4.4.4.4,0,0,0,0-.8L17,23.09l-.88-.22V18.21l1.65,1.18,0,1.42a.4.4,0,0,0-.26.38.4.4,0,0,0,.4.39.39.39,0,0,0,.39-.39A.38.38,0,0,0,18,20.8l0-1.52L16.09,18V15.71l.59.26.36.87a.4.4,0,1,0,.25-.09h-.06l-.39-1-.75-.33v-.65a2.11,2.11,0,0,1,1.35.66C18.52,16.58,19.2,18.73,19.2,21.12ZM14.1,19.5a.29.29,0,0,1,.28.28.28.28,0,0,1-.28.28.27.27,0,0,1-.28-.28A.28.28,0,0,1,14.1,19.5Zm.35,4a.28.28,0,0,1,.28.28.29.29,0,0,1-.28.28.28.28,0,0,1-.28-.28A.27.27,0,0,1,14.45,23.51Zm3,.63a.29.29,0,0,1-.28.28.28.28,0,0,1-.28-.28.27.27,0,0,1,.28-.28A.28.28,0,0,1,17.48,24.14Zm.71-2.95a.29.29,0,0,1-.28.28.28.28,0,0,1-.28-.28.27.27,0,0,1,.28-.28A.28.28,0,0,1,18.19,21.19Zm-.9-4.32a.28.28,0,0,1,0,.56.28.28,0,0,1,0-.56Zm8.92-2c-1.8,1.53-4.45,1.11-5.73.62a4,4,0,0,1-2.22-1.48l1.86.39v.33h0l.27.19.24.17a.28.28,0,0,0,0,.13.26.26,0,1,0,.26-.25.27.27,0,0,0-.17.06l-.25-.17-.26-.18v-.27l2.23.47,0,.38.44.19a.2.2,0,0,0,0,.09.26.26,0,1,0,.26-.26.27.27,0,0,0-.21.1l-.39-.16,0-.33,1.46.31v0a.26.26,0,1,0,.25-.26.25.25,0,0,0-.23.15l-1.87-.4.68-.52.37,0h.23l1.82.36s0,0,0,.06a.26.26,0,1,0,.26-.26.27.27,0,0,0-.22.13l-1.58-.31a20.87,20.87,0,0,0,3.4-.46A2.24,2.24,0,0,1,26.21,14.92Zm-5.35.15a.21.21,0,0,1,.21.21.21.21,0,0,1-.21.21.21.21,0,0,1-.21-.21A.22.22,0,0,1,20.86,15.07Zm2.2.31a.21.21,0,0,1,.21.22.21.21,0,0,1-.42,0A.21.21,0,0,1,23.06,15.38Zm.93-.11v0a.22.22,0,0,1,.2-.14.21.21,0,0,1,.21.21.21.21,0,0,1-.21.21A.22.22,0,0,1,24,15.3a.08.08,0,0,1,0,0Zm1.45-.83a.21.21,0,0,1,0,.42.21.21,0,0,1,0-.42Zm5.11-3.11C29,13.59,25.85,13.8,23.12,14a19.61,19.61,0,0,1-4.65-.25l2.59-1.29.58.75h.61l.54,0a.37.37,0,0,0,.36.29.38.38,0,1,0,0-.75.37.37,0,0,0-.36.29h-.54l-.52,0-.52-.66,3.69-1.83.3.5-.9.57.19,1.11a.37.37,0,1,0,.51.35.36.36,0,0,0-.34-.37l-.18-1,.81-.51.76,1.23a.34.34,0,0,0-.12.27.38.38,0,1,0,.37-.37h-.11l-.3-.47.9-.21.86.49a.46.46,0,0,0,0,.2.38.38,0,0,0,.75,0A.38.38,0,0,0,28,12a.47.47,0,0,0-.2.06l-1-.54-1,.23-.75-1.23,2.12-1.05.69.76h.05l.64-.12.05.88.4.46a.37.37,0,0,0-.06.21.38.38,0,0,0,.75,0,.38.38,0,0,0-.38-.38.33.33,0,0,0-.19.06l-.36-.42-.05-.83.16,0,.94-.16a.37.37,0,0,0,.35.24.37.37,0,1,0,0-.74.37.37,0,0,0-.37.33l-.94.17-.93.16-.59-.67,2.55-1.26a.34.34,0,0,0,.27.13.38.38,0,1,0,0-.75.38.38,0,0,0-.37.37.41.41,0,0,0,0,.11L26.24,9.71l.05-.81.1-.12h0l.25-.3a.46.46,0,0,0,.2,0,.38.38,0,0,0,0-.75.38.38,0,0,0-.38.38.47.47,0,0,0,.06.2l-.11.13h0l-.28.35-.06.95L23.66,11l.47-1.82h0a.38.38,0,1,0-.37-.37.37.37,0,0,0,.2.33l-.51,2-1.41.7c0-.1,0-.2.05-.29s0-.27.07-.44v0l-.34-.74A.37.37,0,0,0,22,10a.38.38,0,0,0-.75,0,.38.38,0,0,0,.38.38h.06l.32.71c0,.15-.05.29-.07.42s0,.25-.06.4L19.53,13l.11-.16a4.19,4.19,0,0,0,.32-.42v-.51h0v-.17a.38.38,0,0,0,.3-.37.38.38,0,0,0-.75,0,.39.39,0,0,0,.28.37v.4h0v.19l-.29.4-.31.41-.87.44A2.36,2.36,0,0,0,18.76,11,17.58,17.58,0,0,1,30.2,7.12c.43,0,.87,0,1.29.09A6,6,0,0,1,30.55,11.33Zm-7.7,1.83a.3.3,0,1,1,.3.3A.3.3,0,0,1,22.85,13.16Zm2.08-.08a.31.31,0,1,1-.3-.3A.3.3,0,0,1,24.93,13.08Zm1.37-.69a.3.3,0,1,1-.3.3A.3.3,0,0,1,26.3,12.39ZM28,12a.3.3,0,1,1-.3.3A.3.3,0,0,1,28,12Zm1.34-.73a.31.31,0,0,1,.31.31.31.31,0,0,1-.61,0A.31.31,0,0,1,29.31,11.31Zm.55-1.58a.3.3,0,1,1,.3.3A.29.29,0,0,1,29.86,9.73Zm0-1.89a.29.29,0,0,1,.3-.3.3.3,0,0,1,.31.3.31.31,0,0,1-.31.31A.3.3,0,0,1,29.85,7.84Zm-3.32.32a.31.31,0,1,1,.31.3A.3.3,0,0,1,26.53,8.16Zm-2.69.63a.31.31,0,1,1,.3.3A.3.3,0,0,1,23.84,8.79Zm-2.16,1.48h-.06a.31.31,0,1,1,0-.61.31.31,0,0,1,.3.3.33.33,0,0,1-.12.25ZM19.59,11.4a.3.3,0,1,1,.3.31A.3.3,0,0,1,19.59,11.4Z" transform="translate(-0.27 -1.65)"/><circle class="cls-2" cx="9.48" cy="4.77" r="0.16"/><circle class="cls-3" cx="22.06" cy="4.72" r="0.16"/><circle class="cls-4" cx="23.27" cy="18.34" r="0.16"/><circle class="cls-5" cx="8.3" cy="18.32" r="0.16"/><path class="cls-6" d="M21.11,2.16a.1.1,0,0,0,0-.2.1.1,0,1,0,0,.2Z" transform="translate(-0.27 -1.65)"/><circle class="cls-7" cx="10.73" cy="0.42" r="0.1"/><path class="cls-8" d="M9.79,24.7a.16.16,0,0,0,.16.16.16.16,0,0,0,0-.32A.16.16,0,0,0,9.79,24.7Z" transform="translate(-0.27 -1.65)"/><path class="cls-9" d="M22,24.7a.16.16,0,1,0,.16-.16A.16.16,0,0,0,22,24.7Z" transform="translate(-0.27 -1.65)"/><circle class="cls-10" cx="15.73" cy="24.23" r="0.16"/><path class="cls-11" d="M14.45,23.88a.09.09,0,0,0,0-.18.09.09,0,1,0,0,.18Z" transform="translate(-0.27 -1.65)"/><path class="cls-12" d="M17.2,24.23a.09.09,0,1,0-.09-.09A.09.09,0,0,0,17.2,24.23Z" transform="translate(-0.27 -1.65)"/><path class="cls-13" d="M17.91,21.28a.09.09,0,0,0,.09-.09.1.1,0,0,0-.09-.1.11.11,0,0,0-.1.1A.1.1,0,0,0,17.91,21.28Z" transform="translate(-0.27 -1.65)"/><path class="cls-14" d="M14.1,19.87a.09.09,0,1,0-.09-.09A.09.09,0,0,0,14.1,19.87Z" transform="translate(-0.27 -1.65)"/><path class="cls-15" d="M17.29,17.24a.09.09,0,1,0-.09-.09A.09.09,0,0,0,17.29,17.24Z" transform="translate(-0.27 -1.65)"/><path class="cls-16" d="M19.89,11.31a.09.09,0,1,0,.09.09A.09.09,0,0,0,19.89,11.31Z" transform="translate(-0.27 -1.65)"/><path class="cls-17" d="M23.15,13.25a.09.09,0,0,0,.09-.09.09.09,0,1,0-.18,0A.09.09,0,0,0,23.15,13.25Z" transform="translate(-0.27 -1.65)"/><path class="cls-18" d="M24.19,15.36a.07.07,0,0,0,.07-.06.07.07,0,0,0-.07-.07.07.07,0,0,0-.06.07A.06.06,0,0,0,24.19,15.36Z" transform="translate(-0.27 -1.65)"/><circle class="cls-19" cx="25.18" cy="13" r="0.06"/><path class="cls-20" d="M23.06,15.66a.06.06,0,0,0,.06-.06.07.07,0,0,0-.06-.07s-.06,0-.06.07A.06.06,0,0,0,23.06,15.66Z" transform="translate(-0.27 -1.65)"/><path class="cls-21" d="M20.86,15.35a.07.07,0,0,0,.07-.07.07.07,0,0,0-.07-.06.06.06,0,0,0-.06.06A.07.07,0,0,0,20.86,15.35Z" transform="translate(-0.27 -1.65)"/><circle class="cls-22" cx="24.36" cy="11.43" r="0.09"/><path class="cls-23" d="M26.3,12.78a.09.09,0,1,0,0-.18.09.09,0,0,0,0,.18Z" transform="translate(-0.27 -1.65)"/><path class="cls-24" d="M28,12.43a.09.09,0,1,0,0-.18.09.09,0,1,0,0,.18Z" transform="translate(-0.27 -1.65)"/><path class="cls-25" d="M29.31,11.71a.09.09,0,1,0,0-.18.09.09,0,0,0,0,.18Z" transform="translate(-0.27 -1.65)"/><path class="cls-26" d="M30.16,9.82a.09.09,0,1,0-.09-.09A.09.09,0,0,0,30.16,9.82Z" transform="translate(-0.27 -1.65)"/><path class="cls-27" d="M30.15,7.93a.09.09,0,1,0-.09-.09A.09.09,0,0,0,30.15,7.93Z" transform="translate(-0.27 -1.65)"/><path class="cls-28" d="M26.93,8.16a.09.09,0,1,0-.09.09A.09.09,0,0,0,26.93,8.16Z" transform="translate(-0.27 -1.65)"/><path class="cls-29" d="M24.24,8.79a.1.1,0,0,0-.1-.09.09.09,0,0,0,0,.18A.1.1,0,0,0,24.24,8.79Z" transform="translate(-0.27 -1.65)"/><path class="cls-30" d="M21.62,9.88a.09.09,0,1,0,.09.09A.09.09,0,0,0,21.62,9.88Z" transform="translate(-0.27 -1.65)"/><path class="cls-31" d="M12.16,11.31a.09.09,0,0,0-.09.09.09.09,0,1,0,.18,0A.09.09,0,0,0,12.16,11.31Z" transform="translate(-0.27 -1.65)"/><path class="cls-32" d="M8.9,13.07a.09.09,0,1,0,.09.09A.09.09,0,0,0,8.9,13.07Z" transform="translate(-0.27 -1.65)"/><circle class="cls-33" cx="7.59" cy="13.65" r="0.06"/><path class="cls-34" d="M6.61,14.59a.07.07,0,0,0-.07.06.07.07,0,0,0,.07.07.07.07,0,0,0,.06-.07A.06.06,0,0,0,6.61,14.59Z" transform="translate(-0.27 -1.65)"/><circle class="cls-35" cx="8.73" cy="13.95" r="0.06"/><path class="cls-36" d="M11.19,15.22s-.06,0-.06.07a.06.06,0,0,0,.06.06.06.06,0,0,0,.06-.06A.07.07,0,0,0,11.19,15.22Z" transform="translate(-0.27 -1.65)"/><path class="cls-37" d="M7.43,13.17a.09.09,0,0,0,0-.18.09.09,0,1,0,0,.18Z" transform="translate(-0.27 -1.65)"/><path class="cls-38" d="M5.66,12.69a.09.09,0,1,0,.09-.09A.09.09,0,0,0,5.66,12.69Z" transform="translate(-0.27 -1.65)"/><path class="cls-39" d="M4,12.34a.09.09,0,1,0,.09-.09A.09.09,0,0,0,4,12.34Z" transform="translate(-0.27 -1.65)"/><path class="cls-40" d="M2.65,11.62a.09.09,0,1,0,.09-.09A.09.09,0,0,0,2.65,11.62Z" transform="translate(-0.27 -1.65)"/><path class="cls-41" d="M1.89,9.64A.09.09,0,1,0,2,9.73.09.09,0,0,0,1.89,9.64Z" transform="translate(-0.27 -1.65)"/><path class="cls-42" d="M1.9,7.75a.09.09,0,0,0-.09.09.09.09,0,1,0,.18,0A.09.09,0,0,0,1.9,7.75Z" transform="translate(-0.27 -1.65)"/><path class="cls-43" d="M5.21,8.07a.09.09,0,0,0,0,.18.09.09,0,1,0,0-.18Z" transform="translate(-0.27 -1.65)"/><path class="cls-44" d="M7.91,8.7A.09.09,0,1,0,8,8.79.09.09,0,0,0,7.91,8.7Z" transform="translate(-0.27 -1.65)"/><path class="cls-45" d="M10.53,10a.1.1,0,0,0-.1-.09.09.09,0,0,0-.09.09.1.1,0,0,0,.09.1A.11.11,0,0,0,10.53,10Z" transform="translate(-0.27 -1.65)"/><circle class="cls-46" cx="15.72" cy="10.37" r="0.69"/><path class="cls-47" d="M15.39,10.37s.07,0,.07-.06a.07.07,0,0,0-.07-.06.06.06,0,0,0-.06.06A.06.06,0,0,0,15.39,10.37Z" transform="translate(-0.27 -1.65)"/><path class="cls-48" d="M16.75,10.56a.28.28,0,0,0,.27-.18,1.67,1.67,0,0,1,0,3.19.29.29,0,0,0-.57.09.3.3,0,0,0,.29.3.29.29,0,0,0,.29-.27,1.79,1.79,0,0,0,0-3.43.28.28,0,0,0-.29-.28.29.29,0,0,0,0,.58Zm0,3.28a.18.18,0,0,1-.18-.18.18.18,0,0,1,.36,0A.18.18,0,0,1,16.75,13.84Zm0-3.75a.18.18,0,0,1,.18.18.18.18,0,0,1-.36,0A.18.18,0,0,1,16.75,10.09Z" transform="translate(-0.27 -1.65)"/><path class="cls-49" d="M16.75,10.33a.06.06,0,0,0,.06-.06.06.06,0,0,0-.12,0A.06.06,0,0,0,16.75,10.33Z" transform="translate(-0.27 -1.65)"/><path class="cls-50" d="M17.63,7.64a.3.3,0,1,0,.29.29A.29.29,0,0,0,17.63,7.64Zm0,.47a.17.17,0,0,1-.17-.18.17.17,0,0,1,.17-.17.18.18,0,0,1,.18.17A.18.18,0,0,1,17.63,8.11Z" transform="translate(-0.27 -1.65)"/><circle class="cls-51" cx="17.37" cy="6.28" r="0.06"/><path class="cls-52" d="M14.68,7.93a.3.3,0,0,0-.3-.29.3.3,0,0,0,0,.59A.3.3,0,0,0,14.68,7.93Zm-.47,0a.18.18,0,0,1,.17-.17.18.18,0,0,1,.18.17.18.18,0,0,1-.18.18A.18.18,0,0,1,14.21,7.93Z" transform="translate(-0.27 -1.65)"/><path class="cls-53" d="M14.45,7.93a.07.07,0,0,0-.07-.06.06.06,0,0,0-.06.06.07.07,0,0,0,.06.07A.07.07,0,0,0,14.45,7.93Z" transform="translate(-0.27 -1.65)"/><path class="cls-54" d="M16.75,13.6a.06.06,0,0,0-.06.06s0,.07.06.07.06,0,.06-.07A.06.06,0,0,0,16.75,13.6Z" transform="translate(-0.27 -1.65)"/><path class="cls-55" d="M17.61,12.09a.07.07,0,0,0,.07.06.06.06,0,0,0,.06-.06.07.07,0,0,0-.06-.07A.07.07,0,0,0,17.61,12.09Z" transform="translate(-0.27 -1.65)"/><path class="cls-56" d="M17,12.57a.08.08,0,0,0,.06-.08s0-.06-.07-.05a.07.07,0,0,0-.06.07A.07.07,0,0,0,17,12.57Z" transform="translate(-0.27 -1.65)"/><circle class="cls-57" cx="14.8" cy="10.97" r="0.06"/><path class="cls-58" d="M14.46,12a.06.06,0,0,0-.06.06.07.07,0,0,0,.06.07.07.07,0,0,0,.07-.07A.07.07,0,0,0,14.46,12Z" transform="translate(-0.27 -1.65)"/><path class="cls-59" d="M15.53,13.87a.07.07,0,0,0,.06-.07.06.06,0,0,0-.06-.06.06.06,0,0,0-.06.06S15.49,13.87,15.53,13.87Z" transform="translate(-0.27 -1.65)"/><path class="cls-60" d="M14.2,13.08a2.06,2.06,0,0,0,1,.77.29.29,0,1,0,.29-.34.28.28,0,0,0-.28.22A1.83,1.83,0,0,1,14,11.87a1.82,1.82,0,0,1,1.14-1.42.28.28,0,0,0,.25.15.29.29,0,1,0-.29-.29v0a1.89,1.89,0,0,0-1.21,1.51A1.83,1.83,0,0,0,14.2,13.08Zm1.33.55a.17.17,0,0,1,.17.17.17.17,0,0,1-.17.18.18.18,0,0,1-.18-.18A.18.18,0,0,1,15.53,13.63Zm-.14-3.49a.17.17,0,0,1,.18.17.18.18,0,0,1-.18.18.18.18,0,0,1-.17-.18A.17.17,0,0,1,15.39,10.14Z" transform="translate(-0.27 -1.65)"/><path class="cls-61" d="M14.5,11.73h0a.3.3,0,0,0,0,.59.29.29,0,0,0,.15-.55,1.64,1.64,0,0,1,1.27-.94,1.67,1.67,0,0,1,1.67,1,.28.28,0,0,0-.16.26.29.29,0,1,0,.58,0,.3.3,0,0,0-.29-.3h0a1.76,1.76,0,0,0-1.79-1.08A1.71,1.71,0,0,0,14.5,11.73Zm0,.47a.18.18,0,0,1-.17-.18.18.18,0,0,1,.17-.17.18.18,0,0,1,.18.17A.18.18,0,0,1,14.46,12.2Zm3.39-.11a.17.17,0,0,1-.17.17.18.18,0,0,1-.18-.17.18.18,0,0,1,.18-.18A.17.17,0,0,1,17.85,12.09Z" transform="translate(-0.27 -1.65)"/><path class="cls-62" d="M17,12.79h.07a.31.31,0,0,0,.2-.11.25.25,0,0,0,0-.22.29.29,0,0,0-.33-.25.28.28,0,0,0-.19.12.27.27,0,0,0-.06.21.28.28,0,0,0,.12.2l0,0a.93.93,0,0,1-1.64.1.28.28,0,0,0,.12-.28.31.31,0,0,0-.11-.19.3.3,0,0,0-.22-.06.25.25,0,0,0-.19.12.27.27,0,0,0-.06.21.31.31,0,0,0,.11.2.3.3,0,0,0,.18.06h.06a1.08,1.08,0,0,0,.91.51h.14A1.06,1.06,0,0,0,17,12.79Zm-.11-.39a.19.19,0,0,1,.12-.07.18.18,0,0,1,.2.15.22.22,0,0,1,0,.13.16.16,0,0,1-.11.07.2.2,0,0,1-.13,0,.19.19,0,0,1-.07-.11A.18.18,0,0,1,16.88,12.4ZM15,12.76a.18.18,0,0,1,0-.24.19.19,0,0,1,.12-.07.21.21,0,0,1,.13,0,.17.17,0,0,1,.06.12.15.15,0,0,1,0,.13.19.19,0,0,1-.12.07A.22.22,0,0,1,15,12.76Z" transform="translate(-0.27 -1.65)"/></svg>