<?xml version="1.0" standalone="no"?>
<!DOCTYPE svg PUBLIC "-//W3C//DTD SVG 20010904//EN"
 "http://www.w3.org/TR/2001/REC-SVG-20010904/DTD/svg10.dtd">
<svg version="1.0" xmlns="http://www.w3.org/2000/svg"
 width="5583.000000pt" height="552.000000pt" viewBox="0 0 5583.000000 552.000000"
 preserveAspectRatio="xMidYMid meet">
<metadata>
Created by potrace 1.16, written by Peter Selinger 2001-2019
</metadata>
<g transform="translate(0.000000,552.000000) scale(0.100000,-0.100000)"
fill="#000000" stroke="none">
<path d="M31780 5509 c-1327 -101 -2324 -734 -2724 -1730 -233 -581 -268
-1297 -95 -1914 113 -400 325 -764 608 -1045 463 -458 1034 -702 1863 -797
224 -26 924 -26 1158 0 230 25 474 62 680 103 174 35 510 117 625 153 l60 19
3 1431 2 1431 -1080 0 -1080 0 0 -485 0 -485 445 0 445 0 0 -559 0 -559 -27
-11 c-44 -17 -149 -39 -258 -52 -135 -17 -525 -17 -645 -1 -419 58 -758 210
-1014 452 -336 320 -506 756 -506 1300 0 401 88 720 279 1010 79 121 278 318
407 403 229 151 501 251 824 302 142 22 531 31 730 16 359 -27 644 -85 918
-188 52 -19 95 -33 97 -31 9 9 275 973 272 982 -7 17 -190 82 -340 121 -255
66 -559 113 -867 135 -167 11 -625 11 -780 -1z"/>
<path d="M1370 5503 c-447 -10 -1041 -54 -1290 -96 l-75 -13 -3 -2654 c-1
-1460 1 -2657 5 -2661 8 -8 323 -41 563 -59 225 -18 1157 -25 1383 -11 990 60
1589 263 1966 667 229 244 356 529 380 848 43 575 -232 1044 -764 1306 -77 38
-193 85 -258 106 -64 20 -115 39 -113 42 3 2 49 22 103 44 270 108 516 295
652 497 229 338 251 802 54 1161 -202 369 -659 648 -1238 755 -321 59 -770 81
-1365 68z m646 -903 c300 -25 503 -103 633 -245 90 -100 131 -212 131 -365 0
-171 -43 -273 -165 -395 -67 -68 -97 -89 -185 -133 -211 -104 -380 -132 -812
-132 l-308 0 0 624 0 623 73 8 c80 8 309 21 428 23 42 1 134 -3 205 -8z m124
-2189 c530 -94 797 -357 777 -765 -18 -391 -275 -622 -792 -713 -82 -14 -160
-18 -430 -18 -181 0 -342 4 -357 8 l-28 7 0 756 0 756 353 -5 c306 -4 368 -7
477 -26z"/>
<path d="M19585 5504 c-230 -6 -601 -25 -790 -40 -202 -16 -613 -62 -627 -70
-4 -3 -8 -1202 -8 -2665 l0 -2659 23 0 c12 0 85 -7 162 -15 391 -41 589 -49
1205 -50 641 0 742 5 1095 56 955 138 1632 470 2064 1014 350 440 535 964 571
1621 36 638 -101 1213 -393 1649 -120 179 -328 397 -507 531 -488 367 -1073
556 -1900 614 -156 11 -699 19 -895 14z m845 -968 c713 -99 1174 -451 1363
-1041 68 -212 90 -374 90 -650 -1 -387 -59 -680 -193 -962 -242 -512 -698
-810 -1380 -904 -108 -15 -678 -19 -772 -6 l-58 8 0 1764 0 1764 53 10 c53 10
207 28 307 35 110 8 488 -4 590 -18z"/>
<path d="M6460 2760 l0 -2710 1850 0 1850 0 0 505 0 505 -1190 0 -1190 0 0
640 0 640 1065 0 1065 0 0 500 0 500 -1065 0 -1065 0 0 555 0 555 1130 0 1130
0 0 510 0 510 -1790 0 -1790 0 0 -2710z"/>
<path d="M12310 2760 l0 -2710 1850 0 1850 0 0 505 0 505 -1190 0 -1190 0 0
640 0 640 1065 0 1065 0 0 500 0 500 -1065 0 -1065 0 0 555 0 555 1130 0 1130
0 0 510 0 510 -1790 0 -1790 0 0 -2710z"/>
<path d="M25400 2760 l0 -2710 665 0 665 0 0 2710 0 2710 -665 0 -665 0 0
-2710z"/>
<path d="M36240 2760 l0 -2710 660 0 660 0 0 2710 0 2710 -660 0 -660 0 0
-2710z"/>
<path d="M39520 4950 l0 -520 775 0 775 0 0 -2190 0 -2190 665 0 665 0 0 2190
0 2190 785 0 785 0 0 520 0 520 -2225 0 -2225 0 0 -520z"/>
<path d="M46655 5458 c-9 -27 -1753 -5364 -1759 -5385 l-7 -23 684 0 684 0
205 692 206 693 823 3 824 2 169 -527 c94 -291 194 -603 223 -696 l54 -167
711 0 c564 0 709 3 706 13 -3 6 -407 1226 -899 2709 l-894 2698 -863 0 c-681
0 -864 -3 -867 -12z m879 -1141 c111 -418 177 -642 381 -1293 113 -359 205
-654 205 -658 0 -3 -284 -6 -631 -6 l-630 0 7 23 c4 12 91 304 195 649 135
452 217 749 295 1067 60 243 111 441 114 441 3 0 32 -100 64 -223z"/>
<path d="M52210 2760 l0 -2710 1810 0 1810 0 0 520 0 520 -1150 0 -1150 0 0
2190 0 2190 -660 0 -660 0 0 -2710z"/>
</g>
</svg>
