<?xml version="1.0" standalone="no"?>
<!DOCTYPE svg PUBLIC "-//W3C//DTD SVG 20010904//EN"
 "http://www.w3.org/TR/2001/REC-SVG-20010904/DTD/svg10.dtd">
<svg version="1.0" xmlns="http://www.w3.org/2000/svg"
 width="5584.000000pt" height="4726.000000pt" viewBox="0 0 5584.000000 4726.000000"
 preserveAspectRatio="xMidYMid meet">
<metadata>
Created by potrace 1.16, written by Peter Selinger 2001-2019
</metadata>
<g transform="translate(0.000000,4726.000000) scale(0.100000,-0.100000)"
fill="#000000" stroke="none">
<path d="M36775 47245 c-256 -56 -452 -234 -534 -485 -48 -144 -46 -334 5
-474 14 -39 26 -76 27 -82 1 -7 -81 -68 -183 -136 -1125 -757 -2147 -1675
-3006 -2703 -1142 -1365 -2014 -2920 -2588 -4615 -42 -124 -78 -231 -81 -237
-3 -9 -27 0 -77 28 -129 71 -598 304 -788 392 -441 202 -887 383 -1379 558
l-195 69 -95 -31 c-628 -207 -1595 -624 -2189 -943 -90 -48 -165 -86 -167 -84
-1 2 -26 75 -55 163 -593 1800 -1568 3502 -2838 4949 -415 474 -946 998 -1447
1427 -422 362 -959 767 -1400 1057 -71 47 -132 86 -133 88 -2 1 8 36 22 77 88
254 40 525 -128 728 -66 81 -146 141 -250 189 -111 51 -172 64 -301 64 -122 0
-210 -21 -319 -76 -180 -91 -317 -264 -372 -468 -24 -89 -24 -281 0 -370 68
-255 262 -452 511 -521 210 -58 476 -3 629 132 l43 38 219 -147 c2442 -1641
4292 -3976 5329 -6727 76 -201 255 -717 255 -735 0 -4 -51 -38 -112 -76 -813
-496 -1334 -1008 -1528 -1498 -17 -44 -43 -127 -58 -185 -25 -98 -27 -122 -27
-306 1 -214 14 -327 62 -524 263 -1087 1369 -2016 2840 -2387 l153 -38 -93
-23 c-471 -121 -979 -331 -1399 -579 -285 -169 -620 -415 -815 -597 -29 -27
-56 -47 -60 -44 -5 3 -566 909 -1248 2014 l-1239 2009 -1873 1174 c-1030 645
-1878 1177 -1884 1181 -8 4 -7 32 5 99 22 130 21 334 -3 457 -34 174 -89 307
-187 456 -178 266 -455 453 -776 523 -110 24 -313 29 -433 11 -271 -42 -497
-157 -691 -351 -253 -253 -375 -565 -361 -926 23 -582 447 -1064 1024 -1165
109 -19 316 -19 424 0 161 28 341 99 471 188 l68 45 1814 -1136 1813 -1137
1256 -2035 c1070 -1734 1254 -2038 1244 -2052 -79 -112 -206 -302 -252 -378
-31 -52 -59 -97 -60 -99 -2 -1 -136 96 -297 216 -3795 2838 -7511 4712 -11478
5788 -2101 570 -4255 905 -6515 1015 -687 33 -2055 38 -2655 11 -585 -27
-1061 -60 -1550 -107 -297 -28 -770 -80 -775 -86 -6 -5 -43 -409 -59 -643 -31
-425 -39 -733 -33 -1249 5 -515 18 -762 57 -1166 195 -1989 835 -3729 1886
-5125 751 -999 1707 -1823 2889 -2489 225 -127 738 -383 985 -492 399 -175
933 -377 1340 -508 231 -74 541 -167 641 -193 l67 -17 47 -145 c283 -873 617
-1437 1162 -1962 229 -220 589 -527 841 -716 681 -512 1499 -932 2367 -1216
822 -269 1664 -424 2660 -489 247 -16 1120 -16 1370 0 1114 72 2059 232 3012
509 157 45 659 209 758 248 29 11 -116 -79 -950 -589 l-750 -458 -1725 -2506
-1726 -2506 -164 3 c-251 3 -414 -33 -619 -139 -357 -184 -607 -524 -687 -935
-26 -132 -24 -368 5 -502 60 -284 184 -510 390 -705 269 -257 629 -383 994
-349 602 56 1082 512 1171 1113 43 291 -4 569 -143 833 l-58 111 1653 2399
1652 2400 348 214 c905 554 1267 766 2594 1521 1361 774 1885 1079 2648 1536
248 150 452 271 452 269 0 -2 -46 -43 -102 -91 -57 -49 -175 -159 -262 -244
-985 -960 -1822 -2386 -2423 -4125 l-48 -140 -2655 -2053 c-1460 -1129 -2663
-2059 -2672 -2066 -16 -12 -34 -344 -198 -3767 -137 -2859 -183 -3755 -193
-3758 -38 -13 -173 -91 -241 -139 -289 -208 -485 -533 -536 -887 -12 -90 -12
-280 0 -370 79 -555 492 -992 1050 -1112 118 -25 400 -25 518 1 255 55 475
171 658 348 193 187 315 408 375 679 20 86 24 133 24 269 0 179 -20 298 -72
444 -109 304 -346 577 -625 722 l-88 45 5 57 c3 31 77 1574 165 3427 88 1854
163 3398 167 3432 l8 62 1885 1457 c1037 801 1901 1470 1921 1485 l36 29 -23
-108 c-246 -1120 -394 -2281 -465 -3627 -17 -329 -23 -1358 -10 -1625 111
-2217 810 -4443 2109 -6720 979 -1717 2310 -3449 3723 -4845 246 -243 691
-653 720 -664 10 -3 25 10 329 279 209 184 755 723 1025 1010 1663 1770 3057
3795 3960 5756 945 2050 1386 4013 1351 6014 -28 1555 -178 2937 -465 4270
-22 101 -39 186 -37 187 3 3 3775 -2912 3797 -2935 15 -15 36 -419 178 -3397
89 -1859 164 -3417 167 -3462 l6 -82 -59 -30 c-369 -186 -637 -548 -708 -955
-32 -185 -16 -438 40 -621 57 -189 179 -390 325 -535 303 -303 713 -437 1137
-374 489 72 907 429 1057 901 81 259 81 547 0 806 -105 332 -355 623 -671 781
-40 20 -73 40 -73 44 2 26 -352 7403 -356 7428 -4 27 -279 243 -2660 2084
-1461 1129 -2658 2058 -2660 2064 -401 1171 -864 2140 -1427 2985 -290 434
-569 785 -908 1143 l-140 147 138 -81 c514 -301 1264 -720 2413 -1348 1509
-825 1740 -958 2969 -1712 l104 -64 1374 -1994 c756 -1097 1500 -2178 1654
-2402 l280 -406 -50 -87 c-154 -269 -206 -608 -141 -925 93 -455 427 -836 858
-980 156 -51 232 -63 412 -63 231 0 398 39 593 140 360 186 610 531 689 951
19 99 16 367 -5 474 -79 398 -329 739 -675 921 -110 57 -171 81 -297 114 -89
23 -121 26 -300 29 l-200 2 -1725 2505 -1725 2505 -912 558 c-502 306 -913
559 -913 560 0 2 28 -7 63 -20 1589 -598 3606 -880 5357 -751 1981 147 3716
784 5035 1850 157 127 428 363 580 504 567 529 906 1082 1196 1951 l69 205 37
12 c21 6 148 44 283 83 1654 483 3075 1204 4185 2124 416 345 857 787 1196
1202 1057 1290 1737 2883 2024 4739 107 695 152 1382 142 2185 -7 531 -22 821
-73 1363 -16 165 -19 178 -38 182 -35 8 -645 73 -886 94 -1448 130 -2970 150
-4490 61 -4432 -261 -8650 -1467 -12660 -3618 -1623 -870 -3305 -1950 -4883
-3134 -131 -99 -244 -181 -251 -184 -8 -3 -24 13 -41 43 -77 131 -207 315
-389 548 l-23 30 1252 2028 1252 2028 1808 1134 1809 1133 49 -44 c141 -126
344 -225 557 -271 115 -25 371 -25 486 0 242 52 437 154 612 321 248 237 382
549 382 890 0 609 -426 1116 -1024 1222 -105 18 -321 18 -427 -1 -514 -89
-914 -494 -1005 -1015 -11 -68 -15 -137 -12 -242 l3 -147 -1912 -1198 -1912
-1198 -1241 -2011 c-682 -1106 -1246 -2018 -1253 -2027 -11 -15 -19 -11 -82
39 -577 466 -1252 807 -1979 1003 l-140 38 75 18 c41 9 157 41 259 71 1003
287 1844 853 2305 1549 221 333 350 671 401 1045 19 142 18 394 -1 506 -95
541 -595 1109 -1468 1666 -94 60 -188 119 -209 130 -21 12 -38 26 -38 30 0 15
80 256 162 488 624 1765 1591 3379 2866 4785 202 223 740 758 962 957 532 477
1066 893 1622 1263 l176 117 65 -46 c132 -94 261 -136 423 -136 270 0 518 156
638 402 47 96 66 172 73 288 18 293 -140 567 -401 695 -50 25 -122 52 -161 60
-86 18 -219 18 -300 0z m294 -142 c182 -50 338 -197 401 -374 28 -81 38 -246
20 -328 -32 -145 -127 -284 -252 -368 -180 -120 -384 -131 -582 -31 -79 40
-201 162 -244 245 -119 227 -84 500 88 687 151 164 363 227 569 169z m-17935
-9 c209 -54 376 -224 431 -439 19 -76 19 -204 0 -280 -67 -263 -305 -455 -565
-455 -87 0 -155 17 -249 62 -200 96 -331 306 -331 533 0 266 178 502 435 576
76 22 200 24 279 3z m20081 -7359 c343 -60 613 -318 691 -662 25 -108 23 -272
-5 -378 -65 -245 -230 -449 -456 -563 -224 -112 -516 -112 -740 0 -237 120
-391 312 -461 578 -26 96 -23 290 5 394 87 325 353 571 680 630 102 19 181 19
286 1z m-22215 -96 c326 -82 577 -352 635 -684 19 -110 19 -170 0 -279 -47
-270 -223 -506 -468 -626 -128 -63 -218 -83 -372 -83 -153 0 -243 20 -370 83
-355 176 -546 575 -456 954 61 257 236 471 476 582 175 81 368 99 555 53z
m11078 -613 c789 -275 1717 -702 2379 -1095 90 -53 163 -98 163 -101 -1 -3
-57 -36 -127 -75 -541 -300 -928 -691 -1088 -1100 -246 -625 -42 -1296 581
-1919 121 -121 291 -268 428 -371 42 -32 76 -61 76 -66 0 -13 -383 -199 -525
-255 -502 -197 -1049 -315 -1645 -355 -217 -14 -697 -6 -905 16 -674 71 -1237
227 -1775 492 l-194 96 29 23 c386 299 577 483 774 744 198 263 328 543 378
810 26 142 24 402 -5 537 -109 509 -475 945 -1097 1311 -66 38 -137 78 -157
88 -21 10 -38 21 -38 25 0 3 64 45 143 91 637 381 1446 758 2281 1064 110 40
207 74 214 74 7 0 57 -15 110 -34z m-2920 -1456 c721 -367 1121 -816 1182
-1325 52 -435 -192 -930 -678 -1379 -109 -101 -312 -265 -424 -343 l-75 -52
-114 85 c-517 388 -844 846 -968 1352 -60 247 -66 493 -16 652 98 309 374 634
833 981 64 48 123 88 130 89 8 0 66 -27 130 -60z m5830 13 c311 -222 604 -507
748 -728 145 -224 193 -405 173 -653 -50 -620 -401 -1187 -1022 -1652 -115
-86 -88 -91 -277 51 -519 389 -858 823 -964 1232 -144 556 115 1075 749 1503
66 44 153 100 194 124 98 57 314 170 325 170 5 0 38 -21 74 -47z m22247 -23
c512 -19 918 -43 1414 -85 296 -26 662 -62 666 -67 5 -6 35 -492 46 -728 13
-281 6 -1141 -10 -1380 -66 -931 -194 -1700 -412 -2460 -297 -1037 -759 -1999
-1347 -2805 -404 -553 -935 -1115 -1467 -1550 -1601 -1312 -3748 -2141 -6730
-2599 -1160 -179 -2342 -297 -4325 -435 -1425 -100 -1805 -115 -2875 -115
-757 0 -1085 7 -1715 39 -1296 66 -2546 201 -3860 416 -168 27 -313 53 -323
57 -13 5 605 316 2255 1131 1250 619 2275 1125 2278 1126 3 1 237 -295 521
-659 l517 -662 983 -28 c541 -15 997 -30 1012 -34 24 -6 32 -17 51 -74 76
-217 268 -384 493 -428 88 -17 261 -8 343 19 202 65 373 242 434 451 73 246
-22 545 -221 702 -383 300 -924 126 -1067 -344 -5 -15 -18 -18 -82 -18 -83 0
-1709 48 -1761 52 -30 3 -65 44 -486 583 l-454 580 121 61 c731 370 6400 3164
6405 3158 22 -25 521 -846 517 -852 -2 -4 -360 -232 -795 -507 -655 -414 -790
-504 -791 -522 0 -12 77 -449 170 -971 94 -522 170 -955 170 -963 0 -8 -28
-29 -63 -46 -170 -89 -299 -254 -343 -438 -22 -95 -15 -274 14 -365 92 -282
377 -476 672 -456 106 7 175 26 265 70 392 195 488 729 188 1046 -105 112
-214 173 -358 203 l-69 14 -159 883 c-128 716 -155 886 -145 895 21 20 1409
897 1413 893 2 -2 285 -462 630 -1023 345 -561 644 -1047 665 -1081 l38 -61
-44 -54 c-172 -210 -203 -502 -77 -742 46 -87 158 -208 237 -256 174 -104 392
-126 582 -57 187 68 339 224 405 416 30 88 38 267 15 362 -79 337 -411 563
-746 508 -41 -7 -84 -13 -94 -14 -15 -1 -76 90 -272 409 -139 226 -250 413
-246 416 7 6 1519 349 1549 352 10 0 360 -192 778 -428 418 -235 761 -429 762
-429 1 -1 -11 -28 -27 -61 -86 -177 -79 -412 17 -598 53 -102 182 -230 283
-279 105 -51 186 -70 305 -70 193 0 330 56 466 192 146 145 207 302 196 509
-9 181 -65 307 -194 437 -195 197 -499 249 -751 129 l-74 -35 -850 480 -850
480 -883 -200 c-486 -110 -889 -200 -897 -200 -12 1 -1329 2133 -1330 2155 0
9 3717 1854 3738 1855 7 0 285 -301 618 -670 334 -368 613 -670 621 -670 11 0
972 167 1176 204 l26 5 6 -92 c3 -51 23 -399 43 -774 l38 -681 353 -407 c194
-224 353 -412 353 -416 0 -5 -9 -23 -20 -41 -66 -107 -95 -304 -66 -448 28
-138 83 -239 185 -341 70 -70 102 -94 171 -127 390 -187 841 21 946 438 22 85
22 236 0 320 -75 297 -336 502 -641 504 -110 0 -188 -16 -280 -58 l-69 -32
-265 306 c-145 168 -289 333 -318 366 l-53 61 -41 732 c-23 403 -39 735 -36
737 2 3 303 56 668 119 365 62 793 136 950 164 157 28 291 51 298 51 7 0 19
-17 28 -37 28 -68 103 -171 166 -228 69 -62 189 -126 282 -150 79 -21 252 -21
330 0 188 49 344 177 430 350 48 98 68 182 68 295 -1 188 -62 339 -193 471
-84 85 -167 135 -280 171 -105 32 -283 33 -385 0 -231 -73 -412 -270 -458
-497 l-14 -70 -384 -68 c-211 -37 -791 -137 -1289 -222 -498 -85 -1066 -183
-1263 -218 l-358 -63 -524 580 c-289 319 -522 583 -517 587 9 9 4480 2219
4488 2219 3 0 27 -18 52 -40 66 -59 146 -105 237 -136 71 -25 94 -28 205 -28
137 0 199 13 300 64 341 172 468 581 287 925 -48 91 -173 212 -273 263 -285
146 -629 76 -830 -169 -57 -69 -109 -176 -129 -264 -15 -64 -17 -223 -3 -323
3 -21 -242 -144 -3137 -1576 -1727 -855 -3141 -1553 -3142 -1553 0 1 18 310
43 687 24 377 44 694 44 705 0 11 134 180 306 385 168 201 309 369 313 373 5
5 26 0 47 -11 127 -65 303 -88 444 -58 115 24 229 85 319 171 88 85 141 167
178 280 33 102 37 271 9 375 -59 215 -231 396 -441 463 -59 18 -93 22 -210 22
-126 -1 -147 -3 -213 -27 -103 -37 -174 -82 -251 -158 -78 -78 -132 -165 -167
-275 -22 -65 -27 -100 -27 -190 -1 -123 15 -199 63 -300 17 -35 30 -66 30 -69
0 -4 -155 -192 -345 -419 -242 -290 -346 -421 -350 -442 -2 -16 -27 -399 -55
-850 -28 -450 -52 -820 -53 -821 -16 -11 -4239 -2095 -4241 -2093 -2 2 182
722 408 1600 l410 1597 71 7 c105 10 151 23 253 72 76 36 107 58 172 123 65
65 87 96 124 172 56 118 70 178 69 303 0 121 -20 201 -74 306 -78 150 -217
269 -379 324 -74 25 -100 29 -205 29 -138 1 -223 -20 -335 -81 -84 -47 -206
-169 -253 -253 -61 -112 -82 -197 -81 -335 0 -105 4 -131 29 -205 48 -141 164
-289 276 -353 21 -12 39 -24 39 -27 0 -10 -887 -3461 -891 -3464 -8 -8 -2476
-1226 -2483 -1226 -4 0 -5 17 -2 38 3 20 37 231 76 467 38 237 83 518 99 626
l31 195 -298 653 -298 653 81 82 c141 142 202 301 192 506 -9 178 -66 308
-192 435 -127 126 -257 183 -435 192 -205 10 -365 -51 -505 -192 -134 -134
-195 -282 -195 -474 0 -117 17 -189 72 -301 32 -67 58 -102 122 -165 134 -134
251 -184 450 -194 l129 -6 282 -619 281 -619 -8 -51 c-55 -339 -200 -1242
-210 -1310 l-13 -89 -1530 -757 c-842 -416 -1767 -874 -2058 -1018 -470 -232
-525 -257 -505 -229 12 18 65 88 118 157 163 211 269 355 453 611 l176 246 -5
509 c-2 280 -6 541 -8 581 l-4 71 36 7 c21 4 69 21 107 39 186 87 312 236 365
430 29 104 25 286 -8 386 -68 207 -249 378 -462 436 -99 27 -264 25 -360 -5
-119 -36 -187 -78 -281 -171 -70 -69 -94 -101 -128 -170 -94 -193 -95 -406 -2
-596 72 -145 228 -285 369 -330 l59 -19 7 -165 c3 -91 6 -332 7 -536 l1 -371
-143 -199 c-150 -210 -280 -385 -443 -597 -54 -70 -179 -241 -279 -380 l-182
-252 -725 -361 c-399 -199 -738 -367 -753 -373 -34 -13 -31 -7 33 69 193 227
425 581 569 868 381 760 522 1631 401 2468 -50 343 -155 720 -285 1023 -19 46
-35 85 -35 87 0 6 574 433 840 626 3145 2271 6366 3928 9655 4968 2674 845
5374 1290 8245 1360 390 10 1335 4 1725 -10z m-48350 -9 c609 -30 1018 -57
1510 -102 3725 -337 7306 -1375 10785 -3125 1901 -956 3759 -2115 5600 -3493
195 -146 358 -268 362 -272 4 -3 -8 -43 -27 -89 -134 -317 -242 -752 -287
-1160 -16 -150 -16 -650 0 -800 79 -711 302 -1334 689 -1924 131 -200 310
-431 432 -559 51 -53 189 -119 -1314 623 l-360 178 -185 258 c-102 142 -256
350 -343 463 -86 113 -240 321 -341 461 l-183 255 5 527 c3 369 8 531 16 537
6 4 29 14 51 21 86 27 161 75 245 160 126 126 185 254 196 429 21 317 -194
609 -506 687 -98 25 -293 15 -382 -18 -100 -37 -174 -85 -248 -158 -224 -225
-261 -573 -88 -838 83 -128 259 -255 382 -278 l39 -7 -7 -581 -7 -582 172
-239 c167 -234 305 -420 502 -677 l98 -128 -90 43 c-49 23 -976 481 -2059
1017 l-1968 974 -68 426 c-38 234 -90 560 -116 725 l-48 300 282 620 283 620
104 1 c198 3 334 59 470 194 70 69 94 101 128 170 196 402 -33 869 -469 956
-97 19 -221 15 -310 -12 -208 -61 -386 -233 -452 -434 -29 -90 -36 -270 -14
-364 31 -132 113 -266 214 -351 l48 -40 -299 -655 -299 -655 17 -110 c9 -60
57 -359 106 -664 49 -305 88 -555 87 -556 -6 -6 -2484 1225 -2491 1237 -7 12
-887 3433 -887 3449 0 5 21 22 48 40 189 127 295 326 295 554 1 263 -136 486
-368 600 -95 47 -183 68 -290 68 -121 0 -192 -16 -300 -68 -160 -77 -278 -210
-339 -384 -27 -77 -30 -99 -30 -206 -1 -202 52 -332 194 -476 70 -72 100 -93
170 -127 93 -44 151 -60 256 -70 l68 -7 382 -1490 c210 -819 396 -1540 412
-1601 l29 -111 -341 168 c-560 274 -3898 1928 -3903 1933 -2 2 -29 384 -58
848 -30 463 -54 844 -55 845 0 1 -157 189 -349 419 l-349 417 34 68 c45 90 64
174 64 291 0 128 -13 184 -67 298 -85 178 -255 312 -449 356 -107 23 -262 15
-362 -20 -199 -69 -348 -219 -418 -421 -25 -72 -28 -93 -28 -210 0 -114 4
-140 27 -212 50 -150 155 -278 298 -365 176 -106 428 -117 618 -28 35 17 65
29 66 28 1 -2 142 -171 314 -376 297 -357 311 -375 312 -415 0 -23 19 -339 43
-702 23 -363 42 -661 41 -663 -1 -1 -1415 696 -3141 1551 -2966 1467 -3139
1554 -3137 1577 15 147 14 242 -2 314 -27 122 -86 227 -180 321 -132 133 -283
195 -470 195 -187 0 -338 -62 -470 -195 -133 -132 -195 -283 -195 -470 0 -187
62 -337 195 -471 140 -141 298 -201 504 -192 161 7 289 59 411 166 l50 44
2188 -1082 c1203 -596 2215 -1097 2250 -1114 l63 -32 -502 -554 c-275 -305
-513 -567 -528 -582 l-26 -26 -335 59 c-184 33 -729 127 -1210 209 -794 136
-1274 219 -1620 281 l-126 22 -12 66 c-7 38 -32 106 -59 161 -82 168 -240 297
-423 346 -88 23 -254 23 -340 0 -266 -73 -453 -285 -491 -560 -42 -302 136
-602 422 -710 318 -120 673 16 830 316 40 79 42 80 73 74 64 -13 1006 -177
1441 -252 248 -42 451 -77 453 -78 1 -2 -16 -333 -39 -737 -40 -719 -41 -735
-63 -759 -26 -28 -609 -704 -611 -707 0 -1 -28 11 -60 26 -127 60 -305 78
-445 45 -195 -46 -364 -187 -449 -376 -43 -97 -56 -161 -55 -283 1 -128 29
-229 89 -329 184 -306 569 -414 888 -249 104 53 232 183 280 283 55 112 71
187 70 315 -1 119 -27 225 -77 312 l-24 41 354 409 c257 297 355 416 359 438
2 17 20 332 40 700 19 369 38 703 41 743 l7 74 51 -7 c28 -3 301 -50 606 -104
305 -54 555 -98 556 -97 3 5 1155 1280 1184 1310 l38 39 1875 -928 1875 -928
-68 -111 c-38 -61 -337 -547 -665 -1081 -327 -533 -601 -969 -608 -968 -7 1
-403 90 -882 198 -478 108 -877 197 -885 198 -9 0 -397 -214 -863 -477 l-846
-478 -64 31 c-98 47 -179 65 -292 65 -113 0 -181 -14 -273 -55 -186 -83 -319
-239 -372 -433 -29 -104 -25 -286 8 -386 68 -207 249 -378 462 -436 104 -28
273 -24 375 9 113 37 195 90 280 178 86 90 147 204 171 319 30 140 7 317 -57
442 l-19 37 22 15 c100 62 1502 846 1514 846 17 0 1507 -336 1540 -348 20 -6
3 -37 -234 -423 l-255 -415 -51 14 c-70 19 -246 17 -321 -3 -234 -62 -419
-247 -480 -480 -21 -79 -21 -251 0 -330 107 -411 560 -621 940 -435 395 193
498 710 206 1042 l-31 36 666 1084 c366 595 670 1082 675 1080 10 -2 1396
-878 1411 -891 6 -5 -282 -1651 -307 -1758 -3 -13 -13 -23 -23 -23 -41 0 -142
-33 -222 -72 -110 -53 -228 -167 -283 -275 -242 -466 102 -1008 622 -980 349
18 611 280 628 627 6 134 -12 226 -68 340 -56 111 -169 227 -280 285 l-76 40
173 965 c96 531 174 972 174 982 0 11 -259 180 -795 520 -437 276 -794 506
-795 510 0 14 523 859 530 856 62 -24 6510 -3224 6508 -3229 -2 -5 -199 -258
-438 -564 -239 -306 -442 -565 -450 -576 -14 -18 -52 -20 -835 -44 -451 -13
-871 -25 -933 -27 l-113 -3 -24 68 c-57 164 -173 296 -327 372 -197 97 -400
98 -593 5 -401 -194 -502 -729 -198 -1050 114 -121 242 -188 402 -210 309 -42
614 144 716 436 13 36 25 67 28 70 4 4 1817 63 1964 64 l52 0 518 663 518 663
730 -361 c3150 -1558 3815 -1889 3815 -1895 0 -7 -527 -95 -893 -150 -1050
-157 -2179 -269 -3252 -325 -553 -28 -803 -36 -1465 -42 -1217 -11 -1964 22
-3970 173 -2205 165 -3683 359 -5055 660 -2870 631 -4926 1749 -6341 3446
-1123 1348 -1812 3067 -2033 5073 -85 767 -97 1646 -35 2500 9 121 17 221 18
222 4 5 532 55 816 77 473 38 775 55 1450 80 196 7 1893 -3 2095 -13z m-1830
-761 c94 -32 153 -71 222 -143 75 -80 116 -159 139 -268 57 -271 -137 -554
-421 -614 -87 -18 -113 -18 -199 0 -107 23 -188 66 -266 140 -111 108 -164
230 -164 380 0 144 52 271 154 371 86 85 177 133 290 154 64 12 179 3 245 -20z
m50060 -1 c215 -80 355 -273 357 -492 3 -295 -232 -536 -522 -536 -160 -1
-265 42 -377 154 -297 296 -163 777 247 890 77 21 216 14 295 -16z m-44205
-555 c237 -67 404 -303 386 -545 -17 -237 -193 -435 -430 -486 -266 -56 -556
133 -616 402 -15 65 -14 179 1 241 29 121 125 257 226 322 135 86 282 108 433
66z m38256 15 c195 -35 368 -198 419 -396 85 -326 -173 -655 -515 -655 -293 0
-530 240 -530 535 0 217 154 428 363 496 102 33 166 38 263 20z m-33507 -1124
c93 -22 177 -71 251 -145 274 -274 180 -718 -183 -867 -75 -31 -212 -42 -300
-23 -91 18 -193 75 -262 145 -104 106 -155 230 -155 375 0 141 46 254 146 360
133 140 320 198 503 155z m28770 0 c97 -25 162 -65 241 -144 80 -81 119 -146
145 -247 83 -320 -180 -654 -515 -654 -142 0 -262 51 -371 160 -111 110 -159
221 -159 370 0 237 158 446 385 511 74 22 202 24 274 4z m-39425 -1670 c101
-26 166 -65 246 -145 80 -80 119 -145 145 -246 55 -211 -43 -448 -236 -574
-165 -107 -401 -105 -564 4 -152 101 -234 244 -243 422 -3 76 0 105 19 169 80
271 368 439 633 370z m50091 0 c222 -58 395 -284 395 -516 0 -281 -250 -530
-533 -529 -232 1 -452 173 -512 401 -20 72 -19 202 1 270 82 281 370 446 649
374z m-15110 -436 c158 -49 297 -190 347 -354 57 -186 1 -393 -143 -532 -56
-54 -241 -139 -320 -149 -138 -16 -310 48 -418 157 -75 75 -134 187 -151 291
-56 325 231 638 560 611 35 -3 92 -13 125 -24z m-19840 6 c200 -53 355 -222
391 -430 35 -196 -51 -398 -219 -516 -99 -70 -178 -94 -302 -94 -98 0 -102 1
-210 50 -86 39 -122 62 -166 105 -280 278 -167 745 212 874 88 30 203 34 294
11z m10315 -210 c404 -41 729 -111 1100 -235 718 -239 1318 -612 1825 -1131
422 -433 713 -907 895 -1459 395 -1194 114 -2481 -756 -3470 -1128 -1282
-3028 -1832 -4789 -1384 -886 224 -1680 687 -2250 1311 -499 545 -822 1182
-944 1858 -69 384 -67 847 5 1235 153 829 632 1625 1329 2205 772 642 1706
1007 2780 1085 170 12 622 4 805 -15z m-7272 -2320 c236 -56 412 -274 412
-512 0 -149 -52 -275 -155 -378 -104 -104 -228 -155 -375 -155 -184 0 -340 85
-443 241 -50 74 -78 159 -84 254 -11 155 42 292 156 406 133 132 313 185 489
144z m13705 0 c202 -53 363 -226 398 -429 29 -170 -35 -355 -165 -474 -212
-193 -527 -188 -730 12 -211 209 -211 541 -1 751 101 101 224 153 365 154 42
1 102 -6 133 -14z m-30408 -380 c196 -41 359 -197 410 -390 45 -174 -10 -370
-139 -499 -90 -90 -187 -137 -337 -161 -69 -11 -179 12 -268 56 -334 164 -404
588 -141 849 77 76 141 113 242 140 89 23 141 24 233 5z m47094 0 c93 -22 177
-71 251 -145 216 -215 211 -545 -10 -754 -106 -100 -219 -146 -360 -146 -145
0 -272 52 -375 155 -102 102 -155 228 -155 370 0 157 43 259 160 375 138 139
305 188 489 145z m-44717 -1276 c88 -18 193 -76 262 -143 211 -209 211 -541 1
-751 -209 -209 -535 -207 -746 4 -214 214 -207 556 15 759 129 117 301 165
468 131z m42353 -3 c318 -84 489 -436 354 -726 -44 -95 -100 -163 -180 -219
-101 -71 -179 -96 -304 -96 -111 0 -172 16 -264 68 -134 75 -240 234 -263 392
-23 160 34 319 156 440 73 72 147 116 233 140 63 17 205 18 268 1z m-39386
-621 c189 -45 358 -211 400 -395 16 -68 13 -199 -5 -261 -53 -179 -194 -320
-373 -373 -62 -18 -193 -21 -261 -5 -80 18 -169 68 -240 135 -221 208 -226
541 -11 755 133 133 313 185 490 144z m36424 0 c144 -37 283 -148 346 -276 32
-66 61 -178 61 -239 0 -126 -64 -275 -160 -370 -262 -262 -686 -192 -849 141
-27 56 -45 109 -52 157 -38 257 135 517 392 586 71 19 191 20 262 1z m-33460
-690 c93 -19 194 -75 265 -146 213 -214 207 -555 -14 -760 -178 -165 -441
-190 -640 -61 -182 118 -278 328 -244 532 27 158 135 308 276 382 123 65 229
80 357 53z m30469 4 c88 -18 193 -76 262 -143 211 -210 212 -540 1 -751 -279
-279 -747 -165 -877 213 -32 94 -32 230 1 325 87 256 352 410 613 356z m-2587
-141 c72 -18 166 -71 226 -127 152 -144 208 -356 144 -548 -108 -322 -473
-466 -763 -301 -175 98 -285 303 -269 501 22 286 281 512 562 490 33 -3 78 -9
100 -15z m-25244 -4 c221 -66 374 -249 395 -473 8 -85 -15 -195 -58 -283 -40
-79 -142 -182 -224 -225 -299 -159 -663 0 -760 332 -78 269 99 574 377 649 73
20 203 20 270 0z m31963 -1670 c-251 -695 -552 -1158 -1053 -1618 -561 -516
-1066 -884 -1636 -1193 -977 -530 -2108 -862 -3349 -983 -421 -41 -522 -45
-1101 -45 -580 0 -699 5 -1149 46 -1145 104 -2306 365 -3301 741 -1375 520
-2355 1039 -3040 1609 -142 119 -414 392 -536 540 -96 117 -262 339 -311 418
-21 32 -21 33 -2 28 10 -4 739 -157 1619 -342 880 -185 1609 -338 1619 -342
18 -5 19 -14 12 -197 -3 -105 -9 -234 -12 -287 l-7 -96 104 -68 c57 -37 220
-149 364 -249 143 -101 308 -215 367 -254 l107 -72 -24 -55 c-124 -278 47
-595 347 -645 250 -42 488 130 530 383 32 191 -72 396 -245 483 -144 74 -330
65 -458 -22 -29 -19 -59 -32 -66 -29 -18 6 -281 185 -612 416 -135 94 -251
174 -259 178 -12 7 -13 42 -3 241 6 128 12 235 14 237 5 4 3908 -815 3915
-821 2 -3 -8 -157 -23 -342 -15 -186 -24 -340 -19 -341 5 -2 176 -75 379 -163
343 -147 370 -161 367 -182 -2 -13 -5 -66 -8 -118 -5 -81 -3 -105 16 -159 42
-126 120 -215 236 -272 260 -128 576 16 649 296 55 214 -45 435 -243 532 -76
38 -77 38 -201 38 -121 0 -129 -1 -194 -32 -39 -19 -92 -55 -125 -87 l-57 -54
-335 143 c-184 80 -338 146 -342 147 -4 2 3 129 15 283 l23 280 24 -3 c26 -3
2493 -519 2521 -528 13 -4 18 -23 21 -97 8 -151 65 -259 183 -349 109 -82 269
-110 403 -69 280 85 412 396 278 658 -113 222 -399 309 -630 191 -52 -27 -142
-112 -172 -164 l-24 -42 -128 27 c-70 15 -811 171 -1647 347 l-1520 319 593
463 c327 254 604 464 615 466 12 3 87 8 167 11 80 3 310 17 513 31 l367 24
1588 -315 c873 -173 1596 -317 1608 -320 20 -4 21 -10 16 -78 -9 -143 38 -265
138 -361 182 -174 457 -174 639 -1 104 99 147 210 139 361 -4 80 -10 103 -41
169 -88 185 -290 291 -489 257 -124 -21 -220 -80 -303 -184 l-30 -38 -1370
273 -1370 273 90 7 c50 4 268 21 485 37 1855 142 3258 317 4495 560 248 49
883 189 902 199 1 1 -14 -42 -33 -95z m-38754 37 c1443 -331 3081 -550 5440
-724 l305 -23 -1374 -274 c-1312 -261 -1374 -272 -1384 -254 -23 44 -130 137
-190 164 -311 146 -657 -72 -657 -414 0 -239 156 -422 391 -459 146 -22 281
23 390 132 102 103 149 228 136 366 -4 36 -4 65 -1 65 3 0 729 144 1612 319
l1607 319 265 -18 c146 -11 384 -26 529 -34 l263 -16 594 -462 c326 -254 592
-463 590 -465 -10 -10 -3291 -692 -3294 -684 -9 28 -69 106 -105 137 -234 202
-592 126 -725 -153 -36 -76 -37 -81 -37 -193 0 -95 4 -124 23 -170 45 -111
150 -218 259 -261 49 -20 76 -23 173 -23 136 0 199 19 283 88 115 94 167 196
175 343 l4 92 52 11 c1013 214 2502 526 2505 524 1 -1 11 -108 21 -236 11
-128 21 -254 24 -279 l5 -46 -344 -147 -344 -148 -36 41 c-141 155 -403 188
-584 72 -256 -165 -286 -532 -59 -736 258 -232 677 -98 758 243 12 52 9 173
-5 233 -7 26 -3 28 375 190 l382 163 -5 51 c-13 112 -50 625 -46 629 2 2 877
187 1944 411 1067 223 1947 408 1956 411 15 4 17 -13 23 -138 4 -79 9 -186 12
-238 l6 -96 -119 -78 c-65 -44 -185 -126 -267 -184 -82 -58 -230 -160 -329
-228 l-179 -124 -32 25 c-70 53 -145 79 -244 83 -200 9 -356 -78 -441 -246
-148 -293 45 -642 371 -669 221 -19 427 122 483 331 26 96 18 232 -19 311
l-27 60 23 15 c12 8 124 86 248 172 124 86 325 225 448 308 l222 151 -5 97
c-8 135 -23 477 -21 479 5 6 3258 684 3263 680 11 -11 -173 -263 -326 -447
-602 -724 -1532 -1314 -3061 -1941 -693 -284 -1210 -456 -1832 -608 -1400
-344 -2826 -461 -4148 -341 -1838 168 -3399 778 -4641 1815 -697 582 -985 919
-1258 1474 -106 216 -262 601 -243 601 4 0 104 -22 222 -49z m23805 -406
c1557 -262 3011 -407 4680 -466 446 -16 1686 -16 2133 0 195 7 355 11 356 9 7
-8 -1117 -873 -1132 -871 -39 5 -6683 1403 -6692 1408 -6 3 -14 14 -19 24 -9
15 5 14 142 -11 84 -16 323 -58 532 -93z m-8385 96 c-5 -11 -18 -22 -27 -25
-10 -3 -1520 -320 -3355 -706 l-3336 -700 -561 437 c-309 240 -559 438 -557
440 2 2 120 -1 262 -7 142 -6 527 -13 854 -16 2099 -23 4225 154 6340 527 190
34 347 63 349 65 2 2 13 4 23 4 15 0 17 -3 8 -19z m-12672 -886 c81 -36 161
-121 192 -202 73 -192 -35 -413 -232 -479 -76 -25 -196 -16 -271 21 -71 35
-140 107 -175 183 -37 78 -39 211 -4 286 89 194 300 276 490 191z m33369 2
c102 -52 167 -132 198 -241 46 -159 -42 -344 -201 -422 -53 -26 -69 -29 -154
-29 -84 0 -102 3 -152 28 -77 38 -145 107 -182 187 -25 54 -30 77 -30 146 -1
76 2 87 39 159 46 91 102 143 191 181 51 21 71 24 149 21 74 -3 100 -8 142
-30z m-16472 -673 c723 -89 1476 -502 2148 -1177 1662 -1673 2791 -4780 3047
-8382 62 -875 71 -1757 25 -2345 -146 -1855 -763 -3753 -1855 -5715 -879
-1578 -2128 -3228 -3481 -4598 l-239 -242 -176 180 c-1738 1777 -3220 3910
-4129 5940 -628 1405 -1010 2756 -1154 4085 -49 455 -56 604 -56 1250 0 597 8
852 40 1340 165 2476 728 4740 1616 6495 805 1591 1834 2654 2934 3031 204 70
525 144 626 144 l29 0 0 -1510 0 -1509 -1627 -1162 c-896 -639 -1635 -1169
-1644 -1178 -15 -14 -19 -149 -43 -1296 -15 -704 -26 -1309 -26 -1345 l0 -65
-65 -24 c-185 -66 -344 -227 -418 -425 -39 -106 -49 -280 -22 -401 70 -316
360 -545 690 -545 331 0 616 225 691 547 25 105 15 284 -20 388 -67 195 -221
358 -408 431 l-70 28 6 151 c3 82 16 643 27 1245 12 602 23 1096 23 1096 1 1
2792 1995 2874 2052 l32 23 0 -3545 0 -3544 -1147 -883 c-632 -485 -1149 -883
-1150 -883 -3 -2 -343 -2757 -343 -2777 0 -10 -18 -19 -52 -26 -243 -51 -445
-236 -525 -478 -22 -68 -26 -98 -27 -205 -1 -139 13 -209 64 -316 88 -183 261
-326 460 -380 89 -24 271 -24 360 0 199 54 372 197 460 380 51 107 65 177 64
316 -1 107 -5 137 -27 205 -15 44 -43 109 -64 145 -52 90 -171 208 -258 255
-38 21 -71 39 -73 40 -1 1 70 586 158 1300 88 714 160 1304 160 1311 0 7 408
327 908 710 499 384 935 720 970 747 l62 49 0 -3645 0 -3644 -101 -26 c-200
-53 -384 -160 -535 -311 -232 -234 -347 -514 -347 -846 0 -255 62 -457 204
-670 360 -539 1105 -683 1654 -322 150 99 308 276 394 441 91 176 131 344 131
556 0 334 -114 610 -350 845 -162 163 -382 282 -597 323 l-63 12 0 1877 c0
1033 1 1878 3 1877 1 0 283 -73 627 -163 l625 -162 161 -460 162 -459 -32 -24
c-17 -14 -67 -61 -111 -106 -136 -136 -195 -283 -195 -486 0 -173 42 -300 145
-437 250 -333 766 -363 1063 -62 144 146 209 318 200 533 -6 137 -41 248 -111
355 -117 174 -291 284 -502 313 l-83 12 -197 566 c-109 311 -200 569 -204 573
-3 4 -349 96 -768 204 -420 109 -767 200 -773 204 -7 4 -9 1342 -8 4114 l3
4107 1445 -1031 c795 -568 1448 -1035 1452 -1039 5 -5 59 -2264 58 -2463 l0
-46 -74 -37 c-140 -69 -255 -184 -321 -320 -55 -114 -70 -183 -69 -325 1 -107
5 -137 27 -205 37 -113 90 -198 177 -285 87 -87 172 -140 285 -177 71 -23 96
-26 215 -26 119 0 144 3 215 26 452 149 636 679 374 1072 -88 131 -224 234
-366 278 l-71 22 -6 90 c-3 50 -17 655 -31 1345 -14 690 -29 1257 -34 1260 -4
3 -744 531 -1644 1174 l-1637 1170 0 1973 0 1973 33 -13 c17 -8 246 -107 508
-221 l476 -207 311 -752 c171 -414 314 -760 318 -769 4 -13 -12 -38 -60 -90
-80 -86 -149 -217 -172 -328 -24 -112 -15 -272 20 -375 104 -305 396 -501 718
-482 261 16 481 165 594 402 49 104 67 184 67 305 0 280 -146 513 -398 635
-115 55 -176 69 -303 70 l-102 0 -23 54 c-12 30 -168 407 -347 839 l-325 785
-657 285 -658 286 0 576 0 577 58 -4 c31 -2 111 -11 177 -19z m-8826 -433
c161 -50 272 -211 258 -377 -16 -209 -226 -374 -425 -334 -75 16 -164 63 -208
113 -20 22 -50 69 -67 105 -58 125 -35 277 60 382 103 115 240 155 382 111z
m17184 -16 c68 -34 149 -116 180 -182 18 -39 22 -66 22 -148 0 -82 -4 -109
-22 -148 -31 -66 -115 -152 -182 -184 -50 -25 -67 -28 -156 -28 -95 0 -103 2
-163 34 -75 41 -135 103 -170 179 -23 49 -27 70 -27 147 0 76 4 99 26 145 45
96 106 154 208 197 80 34 201 29 284 -12z m-23073 -10 c149 -49 265 -232 246
-388 -15 -120 -106 -241 -219 -293 -53 -25 -75 -29 -147 -29 -110 0 -186 32
-260 111 -75 80 -105 150 -104 249 1 111 29 182 103 255 110 110 238 141 381
95z m28965 -9 c149 -68 241 -232 216 -386 -24 -150 -132 -268 -281 -306 -249
-63 -498 179 -440 427 34 145 139 254 277 289 61 15 167 4 228 -24z m-26919
-536 c129 -63 207 -188 207 -330 0 -108 -29 -178 -107 -256 -78 -78 -148 -107
-256 -107 -144 0 -266 77 -332 211 -30 60 -33 75 -33 152 0 71 5 95 27 142 91
196 310 279 494 188z m24912 5 c44 -19 79 -46 116 -86 71 -77 99 -148 99 -251
1 -69 -3 -85 -37 -152 -94 -192 -312 -263 -498 -164 -199 106 -257 356 -123
538 102 140 284 187 443 115z m-10276 -2606 c93 -19 177 -66 248 -138 200
-202 194 -502 -14 -699 -307 -290 -816 -67 -816 358 0 306 285 541 582 479z
m-5644 -4664 c333 -79 490 -456 308 -739 -166 -258 -522 -303 -742 -94 -180
170 -209 424 -72 628 47 71 98 117 177 159 108 57 216 72 329 46z m-9668 -70
c253 -78 448 -280 522 -541 31 -112 32 -286 0 -398 -43 -152 -117 -273 -227
-373 -80 -73 -155 -118 -258 -156 -113 -41 -284 -49 -404 -19 -271 69 -482
281 -554 558 -25 98 -27 260 -5 356 67 287 280 508 561 580 88 22 281 19 365
-7z m26405 -45 c291 -92 493 -335 535 -643 45 -323 -144 -661 -444 -797 -186
-84 -406 -85 -590 -1 -302 137 -489 470 -446 792 45 336 271 589 595 665 87
20 260 12 350 -16z m-9980 -2375 c176 -46 314 -184 360 -360 66 -253 -98 -521
-360 -590 -253 -66 -521 98 -590 360 -90 345 245 680 590 590z m-6126 -4610
c174 -46 310 -184 356 -360 85 -326 -216 -653 -547 -597 -195 33 -353 178
-403 367 -65 250 96 520 352 590 65 18 176 18 242 0z m4842 -615 c70 -13 183
-68 236 -114 165 -144 211 -394 108 -596 -34 -66 -132 -166 -201 -202 -194
-104 -432 -64 -583 98 -105 112 -152 253 -132 394 41 279 302 471 572 420z
m-12731 -730 c212 -60 388 -207 485 -405 58 -118 78 -204 78 -335 0 -131 -20
-217 -78 -335 -173 -355 -578 -519 -948 -385 -405 148 -612 608 -452 1003 58
141 186 294 311 370 182 110 406 142 604 87z m21605 5 c33 -9 103 -37 155 -63
80 -39 110 -61 186 -137 102 -101 158 -187 201 -310 26 -74 28 -91 28 -235 0
-148 -1 -159 -31 -242 -69 -192 -212 -356 -386 -441 -51 -25 -122 -54 -158
-63 -89 -24 -282 -24 -369 0 -343 94 -581 399 -581 746 0 364 268 687 627 755
92 17 239 13 328 -10z m-10990 -1945 c306 -36 573 -226 706 -505 72 -151 84
-204 84 -380 0 -127 -4 -162 -23 -230 -145 -505 -663 -783 -1149 -616 -137 47
-226 104 -338 216 -136 136 -215 277 -249 447 -20 97 -20 265 -1 357 79 378
393 665 775 711 94 11 96 11 195 0z"/>
<path d="M36835 46692 c-65 -42 -95 -95 -95 -170 0 -147 185 -232 298 -137 87
73 82 231 -10 296 -45 33 -150 38 -193 11z"/>
<path d="M18925 46686 c-139 -60 -139 -274 -1 -337 79 -36 169 -13 221 55 30
39 42 101 31 161 -8 43 -59 103 -103 121 -41 17 -109 17 -148 0z"/>
<path d="M39017 39179 c-94 -15 -180 -88 -212 -179 -22 -62 -19 -165 6 -220
25 -55 80 -114 134 -143 33 -18 57 -22 130 -22 103 0 144 16 207 82 55 57 78
115 78 199 0 186 -154 315 -343 283z"/>
<path d="M16690 39083 c-61 -22 -142 -104 -163 -167 -43 -126 -3 -261 98 -334
54 -39 104 -54 182 -54 154 1 273 120 275 275 2 135 -67 239 -189 283 -51 18
-147 16 -203 -3z"/>
<path d="M24905 36640 c-271 -55 -453 -313 -415 -590 19 -142 109 -282 233
-365 206 -136 496 -101 666 80 96 104 141 217 141 360 -1 98 -12 150 -51 233
-99 206 -346 327 -574 282z m193 -225 c75 -23 144 -82 181 -156 64 -128 30
-282 -81 -369 -119 -95 -277 -90 -391 11 -125 109 -137 297 -28 422 83 94 199
127 319 92z"/>
<path d="M24942 36224 c-28 -19 -52 -65 -52 -99 0 -34 24 -80 52 -99 31 -22
96 -20 134 3 67 41 67 151 1 191 -39 24 -104 26 -135 4z"/>
<path d="M30636 36634 c-135 -33 -274 -142 -335 -262 -107 -213 -71 -455 93
-617 298 -295 796 -145 882 265 49 233 -67 474 -278 574 -121 57 -238 70 -362
40z m259 -237 c108 -55 169 -153 169 -272 0 -118 -60 -215 -169 -273 -69 -37
-187 -38 -257 -4 -60 30 -121 90 -150 150 -27 56 -35 154 -18 209 30 95 112
179 204 209 62 21 161 12 221 -19z"/>
<path d="M30701 36226 c-32 -18 -50 -53 -51 -99 0 -76 42 -117 121 -117 33 0
48 7 75 34 29 29 34 41 34 81 0 40 -5 52 -34 81 -28 28 -41 34 -77 34 -24 -1
-55 -7 -68 -14z"/>
<path d="M2810 36429 c-53 -31 -73 -65 -78 -130 -8 -105 61 -179 165 -179 126
0 205 138 142 250 -43 75 -153 104 -229 59z"/>
<path d="M52887 36446 c-74 -27 -107 -76 -107 -159 0 -40 6 -63 23 -87 39 -58
71 -75 141 -75 54 0 68 4 100 29 151 115 20 356 -157 292z"/>
<path d="M8680 35868 c-58 -40 -75 -72 -75 -143 0 -71 17 -103 75 -142 67 -46
179 -23 226 46 32 48 34 138 3 188 -44 70 -162 96 -229 51z"/>
<path d="M46979 35867 c-105 -69 -98 -231 12 -288 91 -46 199 -6 234 86 45
116 -30 225 -155 225 -42 0 -66 -6 -91 -23z"/>
<path d="M13490 34770 c-45 -11 -107 -76 -115 -124 -15 -79 21 -156 88 -186
55 -25 100 -25 153 1 136 65 113 268 -34 309 -42 11 -43 11 -92 0z"/>
<path d="M42220 34758 c-51 -26 -90 -89 -90 -147 0 -80 61 -151 141 -166 151
-28 257 157 156 272 -58 65 -130 80 -207 41z"/>
<path d="M2824 33099 c-38 -11 -82 -53 -100 -96 -57 -135 85 -276 220 -219
107 45 137 181 59 267 -48 53 -108 69 -179 48z"/>
<path d="M52900 33103 c-60 -23 -110 -94 -110 -158 0 -149 181 -226 286 -121
81 81 61 217 -40 265 -40 20 -103 26 -136 14z"/>
<path d="M37739 32658 c-55 -31 -82 -87 -77 -157 7 -104 71 -157 177 -149 94
7 151 69 151 165 0 127 -141 206 -251 141z"/>
<path d="M17950 32669 c-64 -27 -100 -85 -100 -162 0 -96 67 -161 166 -161
211 0 222 318 11 331 -29 1 -63 -2 -77 -8z"/>
<path d="M29054 32491 c-79 -23 -146 -62 -214 -127 -241 -230 -206 -628 71
-813 210 -140 497 -108 668 75 34 36 72 86 84 110 11 24 24 44 28 44 18 0 164
-57 279 -109 729 -330 1309 -933 1588 -1648 131 -336 193 -665 194 -1023 0
-276 -23 -461 -92 -727 -213 -824 -786 -1536 -1570 -1951 -104 -55 -311 -149
-368 -166 -19 -6 -25 -2 -38 31 -59 142 -202 262 -356 298 -185 44 -360 -6
-494 -139 -106 -106 -154 -220 -154 -366 0 -146 49 -268 150 -371 160 -162
399 -203 607 -102 90 44 185 140 233 235 22 44 42 101 46 128 l6 48 132 52
c325 129 622 303 906 528 129 103 396 372 504 507 395 497 635 1082 696 1694
15 153 12 476 -6 631 -98 858 -543 1627 -1250 2160 -72 55 -182 131 -245 170
-149 94 -452 243 -607 300 -96 35 -124 49 -126 65 -19 109 -30 145 -58 203
-61 124 -193 230 -333 267 -77 20 -204 18 -281 -4z m250 -217 c64 -22 147
-100 177 -166 31 -70 31 -172 1 -240 -27 -61 -100 -134 -160 -161 -67 -30
-170 -29 -240 2 -66 30 -144 113 -166 177 -50 148 15 303 156 374 72 35 154
40 232 14z m31 -6027 c184 -94 228 -323 90 -475 -87 -97 -241 -127 -353 -69
-135 71 -201 217 -162 359 24 85 118 181 204 208 56 17 166 6 221 -23z"/>
<path d="M29166 32100 c-41 -13 -65 -38 -76 -81 -20 -71 36 -149 107 -149 134
0 170 175 47 226 -37 16 -38 16 -78 4z"/>
<path d="M29127 26070 c-44 -34 -56 -118 -24 -160 51 -68 154 -67 198 2 30 48
21 113 -20 150 -40 36 -114 39 -154 8z"/>
<path d="M26676 32424 c-93 -23 -189 -78 -256 -151 -93 -99 -129 -181 -139
-316 l-6 -88 -90 -38 c-1139 -479 -1937 -1516 -2060 -2676 -155 -1470 783
-2908 2261 -3464 l129 -48 21 -64 c31 -95 57 -141 119 -207 65 -70 128 -113
211 -144 85 -31 263 -31 348 0 83 31 146 74 211 144 96 103 135 206 135 354 0
158 -55 283 -171 389 -206 187 -533 175 -726 -26 -49 -51 -109 -148 -118 -190
-4 -16 -8 -29 -10 -29 -2 0 -63 24 -137 54 -573 230 -1069 610 -1438 1101
-333 443 -533 924 -612 1470 -21 143 -17 591 6 740 143 927 725 1746 1586
2230 111 62 371 185 393 185 7 0 20 -12 29 -27 47 -79 162 -168 263 -204 84
-29 212 -36 295 -15 187 47 331 185 384 365 20 70 21 209 1 286 -70 266 -357
435 -629 369z m212 -219 c122 -37 215 -161 215 -289 0 -112 -63 -215 -165
-272 -47 -26 -62 -29 -138 -29 -69 0 -93 5 -128 23 -96 51 -150 122 -172 229
-9 42 -8 64 4 113 28 109 98 186 199 221 64 23 118 24 185 4z m286 -6209 c102
-50 169 -158 169 -272 0 -52 -7 -77 -32 -129 -133 -269 -508 -215 -571 82 -21
96 31 224 116 290 90 68 215 79 318 29z"/>
<path d="M26738 32014 c-53 -28 -72 -98 -43 -154 22 -42 53 -60 106 -60 56 0
93 25 109 76 35 104 -75 191 -172 138z"/>
<path d="M26972 25824 c-28 -19 -52 -65 -52 -99 0 -34 24 -80 52 -99 33 -23
109 -21 141 4 58 46 57 147 -2 189 -35 25 -107 28 -139 5z"/>
<path d="M27752 31209 c-493 -33 -988 -203 -1414 -485 -455 -301 -839 -734
-1080 -1218 l-53 -106 -70 0 c-130 0 -258 -55 -354 -151 -202 -202 -202 -537
-1 -739 106 -106 219 -152 370 -152 115 0 199 24 286 80 300 196 322 632 42
852 -29 23 -54 45 -56 49 -1 3 29 62 66 131 436 800 1179 1345 2030 1490 408
69 820 42 1235 -81 325 -97 688 -289 977 -519 131 -104 359 -332 468 -468 118
-147 246 -345 331 -511 l74 -145 -24 -15 c-169 -111 -254 -266 -253 -461 2
-229 137 -416 354 -491 94 -32 239 -33 333 -1 306 106 444 447 299 742 -36 73
-151 188 -224 223 -72 34 -159 57 -219 57 l-46 0 -57 118 c-112 228 -269 472
-433 669 -107 129 -341 358 -473 463 -500 398 -1090 628 -1715 669 -176 12
-212 12 -393 0z m-2477 -2053 c136 -64 208 -212 171 -350 -25 -90 -76 -153
-160 -196 -90 -46 -174 -48 -259 -7 -200 99 -238 355 -74 502 59 54 112 73
202 74 54 1 82 -5 120 -23z m5675 -105 c154 -59 236 -227 186 -379 -22 -65
-93 -145 -160 -179 -75 -39 -179 -39 -258 0 -149 73 -215 247 -149 395 29 63
113 144 173 165 61 22 148 21 208 -2z"/>
<path d="M25100 28982 c-50 -24 -76 -81 -61 -131 40 -134 231 -110 231 29 0
43 -27 87 -66 105 -41 19 -61 19 -104 -3z"/>
<path d="M30763 28845 c-33 -33 -35 -38 -31 -87 7 -70 47 -108 114 -108 39 0
51 5 80 34 30 30 34 40 34 84 0 43 -5 55 -31 81 -26 26 -38 31 -81 31 -44 0
-54 -4 -85 -35z"/>
<path d="M27676 30099 c-389 -57 -734 -304 -913 -655 -92 -179 -133 -352 -133
-559 0 -342 118 -626 359 -866 117 -117 185 -166 318 -233 338 -169 759 -169
1095 0 549 276 807 907 612 1496 -140 423 -525 746 -971 813 -106 16 -272 18
-367 4z"/>
<path d="M29625 28554 c-182 -28 -336 -138 -410 -296 -111 -235 -33 -525 179
-663 l25 -17 -29 -58 c-97 -192 -299 -428 -489 -570 -124 -94 -316 -195 -461
-243 -665 -222 -1400 22 -1842 611 l-55 73 56 57 c159 163 195 399 94 610 -36
75 -150 190 -223 225 -214 103 -455 65 -615 -97 -135 -136 -183 -315 -135
-501 33 -130 100 -226 208 -299 100 -67 174 -89 305 -90 l108 -1 64 -90 c261
-365 667 -639 1110 -749 256 -63 613 -62 870 5 356 91 690 295 931 567 93 105
215 282 279 405 l40 77 65 0 c135 0 260 53 358 152 273 272 166 739 -197 864
-66 23 -180 36 -236 28z m186 -246 c63 -26 141 -111 163 -174 51 -151 -20
-314 -165 -379 -55 -24 -71 -27 -138 -23 -87 5 -136 26 -195 84 -60 58 -91
134 -90 219 0 87 25 147 86 207 95 95 217 119 339 66z m-3452 -217 c182 -94
226 -326 89 -476 -63 -70 -130 -99 -223 -100 -57 0 -81 5 -127 28 -65 32 -121
90 -151 156 -31 66 -30 179 2 244 33 66 101 132 164 156 70 28 183 24 246 -8z"/>
<path d="M29628 28135 c-35 -20 -58 -64 -58 -110 0 -26 9 -45 33 -72 29 -31
40 -36 80 -37 151 -3 166 216 15 230 -27 3 -53 -1 -70 -11z"/>
<path d="M26164 27919 c-58 -29 -72 -128 -26 -180 23 -26 38 -33 80 -37 49 -4
54 -2 87 31 31 31 35 41 35 85 0 43 -5 55 -31 81 -26 26 -38 31 -77 30 -26 0
-56 -5 -68 -10z"/>
<path d="M21017 30136 c-52 -19 -83 -50 -103 -102 -54 -143 99 -274 237 -204
90 46 117 174 52 250 -48 57 -122 79 -186 56z"/>
<path d="M34694 30132 c-58 -28 -87 -73 -91 -141 -3 -44 1 -64 19 -96 26 -45
93 -85 143 -85 45 0 116 40 142 79 32 47 32 135 1 181 -34 49 -67 70 -123 76
-37 3 -61 0 -91 -14z"/>
<path d="M4289 29737 c-39 -26 -79 -97 -79 -142 1 -46 34 -109 71 -136 28 -19
46 -24 99 -24 79 0 122 26 151 89 25 54 24 92 -3 146 -32 63 -77 90 -148 90
-43 0 -66 -6 -91 -23z"/>
<path d="M51409 29760 c-70 -21 -119 -90 -119 -166 1 -113 128 -195 233 -150
109 46 136 189 53 272 -45 45 -109 62 -167 44z"/>
<path d="M6680 28468 c-62 -32 -90 -77 -90 -145 0 -62 17 -100 60 -136 66 -56
183 -41 237 30 38 50 43 132 11 188 -26 45 -93 85 -143 85 -17 0 -51 -10 -75
-22z"/>
<path d="M49015 28476 c-37 -16 -83 -68 -91 -102 -11 -43 2 -120 25 -153 31
-43 76 -64 138 -64 164 0 225 207 91 306 -34 26 -121 33 -163 13z"/>
<path d="M9655 27855 c-142 -51 -147 -252 -8 -311 76 -33 169 -1 210 71 76
135 -56 293 -202 240z"/>
<path d="M46051 27848 c-68 -35 -86 -66 -86 -146 0 -81 25 -124 89 -153 54
-25 92 -24 146 4 63 31 90 76 90 147 0 93 -55 156 -145 166 -40 4 -59 1 -94
-18z"/>
<path d="M12602 27153 c-51 -25 -76 -68 -80 -138 -3 -50 0 -66 20 -95 13 -19
39 -45 58 -58 29 -20 44 -23 93 -20 64 5 98 25 135 78 48 71 15 197 -62 234
-43 20 -121 20 -164 -1z"/>
<path d="M43080 27158 c-63 -32 -90 -77 -90 -148 0 -62 22 -106 71 -142 63
-47 176 -27 227 40 23 30 27 45 27 101 0 53 -5 72 -23 99 -48 66 -139 88 -212
50z"/>
<path d="M40461 27023 c-108 -54 -115 -221 -11 -290 46 -32 134 -32 180 0 58
39 75 71 75 141 0 54 -4 68 -29 100 -48 64 -141 85 -215 49z"/>
<path d="M15224 27022 c-63 -30 -89 -74 -89 -152 0 -52 5 -72 23 -98 32 -44
77 -66 137 -66 99 -1 165 65 165 164 0 128 -121 205 -236 152z"/>
<path d="M11159 24312 c-26 -23 -33 -38 -37 -80 -4 -49 -2 -54 31 -87 31 -31
41 -35 85 -35 41 0 55 5 81 29 27 25 31 36 31 81 0 46 -4 56 -34 86 -29 29
-41 34 -80 34 -36 0 -52 -6 -77 -28z"/>
<path d="M44527 24320 c-60 -48 -57 -152 6 -190 106 -65 228 42 172 150 -8 16
-25 36 -37 44 -33 23 -109 21 -141 -4z"/>
<path d="M19273 23187 c-31 -29 -36 -40 -37 -80 -3 -148 211 -167 231 -20 10
75 -43 133 -122 133 -26 0 -45 -9 -72 -33z"/>
<path d="M36404 23186 c-29 -29 -34 -41 -34 -81 0 -40 5 -52 34 -81 28 -28 42
-34 75 -34 81 0 121 41 121 121 0 33 -7 48 -34 75 -29 29 -41 34 -81 34 -40 0
-52 -5 -81 -34z"/>
<path d="M13405 23186 c-117 -52 -83 -226 45 -226 70 0 128 68 117 138 -7 42
-31 70 -74 88 -39 17 -50 17 -88 0z"/>
<path d="M42328 23185 c-55 -31 -74 -110 -41 -166 52 -87 186 -67 213 31 12
45 -2 92 -38 124 -28 25 -99 31 -134 11z"/>
<path d="M15403 22654 c-99 -50 -68 -207 43 -220 75 -9 144 65 130 141 -14 72
-105 114 -173 79z"/>
<path d="M40314 22651 c-63 -39 -71 -132 -14 -183 25 -23 40 -28 81 -28 42 0
55 5 79 28 101 101 -24 257 -146 183z"/>
<path d="M30097 19956 c-49 -18 -64 -32 -89 -80 -45 -88 -4 -197 87 -231 116
-45 225 30 225 155 0 71 -27 116 -90 148 -50 25 -79 27 -133 8z"/>
<path d="M24464 15300 c-46 -10 -89 -44 -108 -84 -24 -50 -21 -126 7 -166 39
-58 71 -75 142 -75 71 0 103 17 143 75 27 40 30 116 5 167 -29 62 -116 101
-189 83z"/>
<path d="M14585 15066 c-150 -69 -209 -244 -134 -394 51 -103 131 -152 249
-152 118 0 198 49 249 152 57 113 36 251 -50 337 -80 81 -213 105 -314 57z"/>
<path d="M41124 15034 c-58 -21 -120 -77 -151 -138 -36 -68 -39 -187 -7 -256
49 -104 143 -163 259 -163 161 0 279 122 279 288 0 119 -51 202 -156 254 -70
35 -152 41 -224 15z"/>
<path d="M31194 12809 c-69 -20 -123 -111 -111 -187 13 -77 89 -142 167 -142
19 0 53 9 76 21 100 48 123 176 47 260 -48 53 -107 69 -179 48z"/>
<path d="M25040 8187 c-48 -25 -90 -89 -90 -136 0 -118 110 -205 217 -171 145
46 163 244 29 309 -55 27 -102 26 -156 -2z"/>
<path d="M29937 7576 c-75 -27 -107 -76 -107 -159 0 -40 6 -63 23 -87 39 -58
71 -75 141 -75 54 0 68 4 100 29 49 37 69 86 64 152 -9 111 -116 179 -221 140z"/>
<path d="M17052 6701 c-70 -24 -118 -65 -156 -131 -28 -50 -31 -63 -31 -140 0
-77 3 -90 31 -140 92 -163 304 -199 442 -75 70 63 96 121 96 215 0 94 -26 152
-96 215 -81 73 -181 92 -286 56z"/>
<path d="M38693 6711 c-49 -13 -119 -57 -152 -98 -84 -102 -81 -270 6 -372 56
-66 122 -95 218 -95 68 -1 88 3 131 26 102 54 154 140 154 258 0 118 -53 206
-152 256 -53 27 -151 39 -205 25z"/>
<path d="M27777 4616 c-120 -45 -197 -151 -197 -272 0 -159 129 -287 290 -288
294 0 398 393 141 537 -64 36 -171 47 -234 23z"/>
</g>
</svg>
