<svg id="Calque_1" data-name="Calque 1" xmlns="http://www.w3.org/2000/svg" viewBox="0 0 2.7 0.75"><defs><style>.cls-1{fill:#007bbd;}</style></defs><title>coverbeedigitalsvg</title><rect class="cls-1" x="0.2" y="0.29" width="0.09" height="0.25" rx="0.01"/><path class="cls-1" d="M2.72,1.48a.09.09,0,0,0,0-.05l-.06,0,0,0h0s0,0,0,0H2.47v.23h.08s0,0,0,0V1.53h.05s0,0,0,0a0,0,0,0,1,0,0v.12s0,0,0,0h.07a0,0,0,0,0,0,0V1.53A.07.07,0,0,0,2.72,1.48Z" transform="translate(-2.15 -1.13)"/><path class="cls-1" d="M2.39,1.3a0,0,0,1,0,0,.1.05.05,0,0,0,0-.1Z" transform="translate(-2.15 -1.13)"/><path class="cls-1" d="M4.74,1.24a.36.36,0,0,0-.26-.11h-2a.36.36,0,0,0-.26.11.36.36,0,0,0,0,.52.36.36,0,0,0,.26.11h2a.36.36,0,0,0,.26-.11.36.36,0,0,0,0-.52ZM2.52,1.19a.32.32,0,0,1,.22.09.31.31,0,0,1,0,.44.32.32,0,0,1-.22.09.31.31,0,0,1,0-.62Zm2.19.54a.33.33,0,0,1-.23.1H2.66l.06,0,.07-.06a.25.25,0,0,0,0-.07.16.16,0,0,0,0-.09.25.25,0,0,0,0-.07.25.25,0,0,0,0-.07.16.16,0,0,0,0-.09.25.25,0,0,0,0-.07l-.07-.06-.06,0H4.48a.33.33,0,0,1,.23.56Z" transform="translate(-2.15 -1.13)"/><polygon class="cls-1" points="0.82 0.21 0.89 0.21 0.89 0.45 1.01 0.45 1.01 0.51 0.82 0.51 0.82 0.21"/><path class="cls-1" d="M3.27,1.36s0,0,0,0a0,0,0,0,1,0-.06S3.27,1.34,3.27,1.36Zm-.07.28V1.42h.07v.22Z" transform="translate(-2.15 -1.13)"/><path class="cls-1" d="M3.32,1.49V1.42h.06v0h0a.09.09,0,0,1,.07,0,.08.08,0,0,1,.08.09v.13H3.46V1.52s0-.05,0-.05a0,0,0,0,0,0,0h0v.13H3.32Z" transform="translate(-2.15 -1.13)"/><path class="cls-1" d="M3.65,1.51h0v0l0-.07h.08l-.08.09.09.13H3.72l-.06-.09v.09H3.58V1.32h.07Z" transform="translate(-2.15 -1.13)"/><path class="cls-1" d="M3.87,1.55s0,0,.06,0H4v0H3.92c-.08,0-.12,0-.12-.11a.11.11,0,0,1,.11-.11.09.09,0,0,1,.1.1v0Zm.08,0s0-.05,0-.05,0,0,0,.05Z" transform="translate(-2.15 -1.13)"/><path class="cls-1" d="M4.26,1.32v.32H4.2v0h0a.09.09,0,0,1-.07,0S4,1.6,4,1.53s0-.11.09-.11a.08.08,0,0,1,.06,0h0V1.32Zm-.07.19h0s0,0,0,0,0,0,0,.06,0,.06,0,.06,0,0,0,0V1.51Z" transform="translate(-2.15 -1.13)"/><rect class="cls-1" x="2.17" y="0.21" width="0.07" height="0.3"/><path class="cls-1" d="M4.44,1.49V1.42H4.5v0h0a.09.09,0,0,1,.07,0s.08,0,.08.09v.13H4.58V1.52s0-.05,0-.05,0,0,0,0h0v.13H4.44Z" transform="translate(-2.15 -1.13)"/></svg>