<svg id="Calque_1" data-name="Calque 1" xmlns="http://www.w3.org/2000/svg" viewBox="0 0 188.86 18.67"><defs><style>.cls-1{fill:#0098da;}.cls-2{fill:#054777;}</style></defs><title>logobee_svg2</title><path class="cls-1" d="M145.07,295.92v-.05c2.21-.76,3.23-2.28,3.23-3.91a4,4,0,0,0-2.36-3.58c-1.42-.79-3.07-1-5.77-1a37.25,37.25,0,0,0-5.72.38v18a35.77,35.77,0,0,0,4.79.27c3.89,0,6.27-.6,7.69-1.65a4.78,4.78,0,0,0,2-3.88C149,298.06,147.31,296.49,145.07,295.92Zm-6.24-5.45a12.12,12.12,0,0,1,1.89-.11c2,0,3.13.73,3.13,2.12s-1.24,2.25-3.57,2.25h-1.45Zm1.71,12.42a16.23,16.23,0,0,1-1.71-.05v-5.16h1.51c2.21,0,4,.74,4,2.58S142.55,302.89,140.54,302.89Z" transform="translate(-134.45 -287.29)"/><polygon class="cls-1" points="26.27 10.74 33.48 10.74 33.48 7.38 26.27 7.38 26.27 3.58 33.91 3.58 33.91 0.19 21.83 0.19 21.83 18.48 34.32 18.48 34.32 15.09 26.27 15.09 26.27 10.74"/><polygon class="cls-1" points="46.08 10.74 53.28 10.74 53.28 7.38 46.08 7.38 46.08 3.58 53.71 3.58 53.71 0.19 41.63 0.19 41.63 18.48 54.12 18.48 54.12 15.09 46.08 15.09 46.08 10.74"/><path class="cls-2" d="M209.87,289.3c-1.88-1.33-4.29-1.95-8-1.95a41.45,41.45,0,0,0-6,.38v18a40.11,40.11,0,0,0,5,.27c3.84,0,7-.76,9-2.36a9,9,0,0,0,3.25-7.41A7.87,7.87,0,0,0,209.87,289.3Zm-8,13.43a8.89,8.89,0,0,1-1.54-.08v-12a10.07,10.07,0,0,1,2-.16c3.8,0,6.18,2,6.15,5.81C208.48,300.7,205.87,302.76,201.86,302.73Z" transform="translate(-134.45 -287.29)"/><rect class="cls-2" x="85.94" y="0.19" width="4.44" height="18.29"/><path class="cls-2" d="M242,298.53h3v3.82a6.37,6.37,0,0,1-2.17.27c-3.63,0-6.16-2.22-6.16-6,0-4,2.79-5.92,6.47-5.92a11.38,11.38,0,0,1,4.56.79l.93-3.31a14.17,14.17,0,0,0-5.43-.9c-6.41,0-11.15,3.48-11.18,9.55a8.57,8.57,0,0,0,2.76,6.65c1.8,1.63,4.39,2.47,8,2.47a23.42,23.42,0,0,0,6.53-1V295.3H242Z" transform="translate(-134.45 -287.29)"/><rect class="cls-2" x="122.61" y="0.19" width="4.44" height="18.29"/><polygon class="cls-2" points="133.69 3.66 138.95 3.66 138.95 18.48 143.39 18.48 143.39 3.66 148.74 3.66 148.74 0.19 133.69 0.19 133.69 3.66"/><path class="cls-2" d="M292.3,287.48l-6,18.29h4.58l1.4-4.69h5.6l1.51,4.69h4.76l-6.07-18.29Zm.64,10.5,1.16-3.88c.32-1.06.61-2.44.9-3.52h.06c.29,1.08.63,2.44,1,3.52l1.22,3.88Z" transform="translate(-134.45 -287.29)"/><polygon class="cls-2" points="181.08 15.01 181.08 0.19 176.63 0.19 176.63 18.48 188.86 18.48 188.86 15.01 181.08 15.01"/></svg>