<svg id="Calque_1" data-name="Calque 1" xmlns="http://www.w3.org/2000/svg" xmlns:xlink="http://www.w3.org/1999/xlink" viewBox="0 0 188.91 159.88"><defs><style>.cls-1{fill:url(#linear-gradient);}.cls-2{fill:url(#linear-gradient-2);}.cls-3{fill:url(#linear-gradient-3);}.cls-4{fill:url(#linear-gradient-4);}.cls-5{fill:url(#linear-gradient-5);}.cls-6{fill:url(#linear-gradient-6);}.cls-7{fill:url(#linear-gradient-7);}.cls-8{fill:url(#linear-gradient-8);}.cls-9{fill:url(#linear-gradient-9);}.cls-10{fill:url(#linear-gradient-10);}.cls-11{fill:url(#linear-gradient-11);}.cls-12{fill:url(#linear-gradient-12);}.cls-13{fill:url(#linear-gradient-13);}.cls-14{fill:url(#linear-gradient-14);}.cls-15{fill:url(#linear-gradient-15);}.cls-16{fill:url(#linear-gradient-16);}.cls-17{fill:url(#linear-gradient-17);}.cls-18{fill:url(#linear-gradient-18);}.cls-19{fill:url(#linear-gradient-19);}.cls-20{fill:url(#linear-gradient-20);}.cls-21{fill:url(#linear-gradient-21);}.cls-22{fill:url(#linear-gradient-22);}.cls-23{fill:url(#linear-gradient-23);}.cls-24{fill:url(#linear-gradient-24);}.cls-25{fill:url(#linear-gradient-25);}.cls-26{fill:url(#linear-gradient-26);}.cls-27{fill:url(#linear-gradient-27);}.cls-28{fill:url(#linear-gradient-28);}.cls-29{fill:url(#linear-gradient-29);}.cls-30{fill:url(#linear-gradient-30);}.cls-31{fill:url(#linear-gradient-31);}.cls-32{fill:url(#linear-gradient-32);}.cls-33{fill:url(#linear-gradient-33);}.cls-34{fill:url(#linear-gradient-34);}.cls-35{fill:url(#linear-gradient-35);}.cls-36{fill:url(#linear-gradient-36);}.cls-37{fill:url(#linear-gradient-37);}.cls-38{fill:url(#linear-gradient-38);}.cls-39{fill:url(#linear-gradient-39);}.cls-40{fill:url(#linear-gradient-40);}.cls-41{fill:url(#linear-gradient-41);}.cls-42{fill:url(#linear-gradient-42);}.cls-43{fill:url(#linear-gradient-43);}.cls-44{fill:url(#linear-gradient-44);}.cls-45{fill:url(#linear-gradient-45);}.cls-46{fill:url(#linear-gradient-46);}.cls-47{fill:url(#linear-gradient-47);}.cls-48{fill:url(#linear-gradient-48);}.cls-49{fill:url(#linear-gradient-49);}.cls-50{fill:url(#linear-gradient-50);}.cls-51{fill:url(#linear-gradient-51);}.cls-52{fill:url(#linear-gradient-52);}.cls-53{fill:url(#linear-gradient-53);}.cls-54{fill:url(#linear-gradient-54);}.cls-55{fill:url(#linear-gradient-55);}.cls-56{fill:url(#linear-gradient-56);}.cls-57{fill:url(#linear-gradient-57);}.cls-58{fill:url(#linear-gradient-58);}.cls-59{fill:url(#linear-gradient-59);}.cls-60{fill:url(#linear-gradient-60);}.cls-61{fill:url(#linear-gradient-61);}.cls-62{fill:url(#linear-gradient-62);}</style><linearGradient id="linear-gradient" x1="228.88" y1="280.2" x2="228.88" y2="120.32" gradientUnits="userSpaceOnUse"><stop offset="0.21" stop-color="#054674"/><stop offset="0.47" stop-color="#0272ab"/><stop offset="0.7" stop-color="#0098da"/></linearGradient><linearGradient id="linear-gradient-2" x1="56.83" y1="29.52" x2="56.83" y2="27.6" xlink:href="#linear-gradient"/><linearGradient id="linear-gradient-3" x1="132.2" y1="29.24" x2="132.2" y2="27.32" xlink:href="#linear-gradient"/><linearGradient id="linear-gradient-4" x1="139.47" y1="110.9" x2="139.47" y2="108.98" xlink:href="#linear-gradient"/><linearGradient id="linear-gradient-5" x1="49.73" y1="110.76" x2="49.73" y2="108.84" xlink:href="#linear-gradient"/><linearGradient id="linear-gradient-6" x1="259.34" y1="123.39" x2="259.34" y2="122.17" xlink:href="#linear-gradient"/><linearGradient id="linear-gradient-7" x1="64.28" y1="3.11" x2="64.28" y2="1.89" xlink:href="#linear-gradient"/><linearGradient id="linear-gradient-8" x1="192.43" y1="259.41" x2="192.43" y2="257.5" xlink:href="#linear-gradient"/><linearGradient id="linear-gradient-9" x1="265.58" y1="259.41" x2="265.58" y2="257.5" xlink:href="#linear-gradient"/><linearGradient id="linear-gradient-10" x1="94.29" y1="146.15" x2="94.29" y2="144.23" xlink:href="#linear-gradient"/><linearGradient id="linear-gradient-11" x1="219.41" y1="253.55" x2="219.41" y2="252.45" xlink:href="#linear-gradient"/><linearGradient id="linear-gradient-12" x1="235.9" y1="255.66" x2="235.9" y2="254.56" xlink:href="#linear-gradient"/><linearGradient id="linear-gradient-13" x1="240.15" y1="237.96" x2="240.15" y2="236.86" xlink:href="#linear-gradient"/><linearGradient id="linear-gradient-14" x1="217.32" y1="229.54" x2="217.32" y2="228.44" xlink:href="#linear-gradient"/><linearGradient id="linear-gradient-15" x1="236.45" y1="213.77" x2="236.45" y2="212.67" xlink:href="#linear-gradient"/><linearGradient id="linear-gradient-16" x1="252.05" y1="179.32" x2="252.05" y2="178.22" xlink:href="#linear-gradient"/><linearGradient id="linear-gradient-17" x1="271.58" y1="189.84" x2="271.58" y2="188.73" xlink:href="#linear-gradient"/><linearGradient id="linear-gradient-18" x1="277.83" y1="202.5" x2="277.83" y2="201.74" xlink:href="#linear-gradient"/><linearGradient id="linear-gradient-19" x1="150.9" y1="78.3" x2="150.9" y2="77.54" xlink:href="#linear-gradient"/><linearGradient id="linear-gradient-20" x1="271.03" y1="204.28" x2="271.03" y2="203.52" xlink:href="#linear-gradient"/><linearGradient id="linear-gradient-21" x1="257.86" y1="202.42" x2="257.86" y2="201.66" xlink:href="#linear-gradient"/><linearGradient id="linear-gradient-22" x1="146" y1="69.05" x2="146" y2="67.95" xlink:href="#linear-gradient"/><linearGradient id="linear-gradient-23" x1="290.48" y1="187.04" x2="290.48" y2="185.94" xlink:href="#linear-gradient"/><linearGradient id="linear-gradient-24" x1="300.49" y1="184.93" x2="300.49" y2="183.83" xlink:href="#linear-gradient"/><linearGradient id="linear-gradient-25" x1="308.52" y1="180.62" x2="308.52" y2="179.51" xlink:href="#linear-gradient"/><linearGradient id="linear-gradient-26" x1="313.59" y1="169.3" x2="313.59" y2="168.2" xlink:href="#linear-gradient"/><linearGradient id="linear-gradient-27" x1="313.54" y1="157.98" x2="313.54" y2="156.88" xlink:href="#linear-gradient"/><linearGradient id="linear-gradient-28" x1="293.67" y1="159.88" x2="293.67" y2="158.78" xlink:href="#linear-gradient"/><linearGradient id="linear-gradient-29" x1="277.53" y1="163.66" x2="277.53" y2="162.56" xlink:href="#linear-gradient"/><linearGradient id="linear-gradient-30" x1="262.39" y1="170.75" x2="262.39" y2="169.65" xlink:href="#linear-gradient"/><linearGradient id="linear-gradient-31" x1="205.71" y1="179.33" x2="205.71" y2="178.23" xlink:href="#linear-gradient"/><linearGradient id="linear-gradient-32" x1="186.17" y1="189.84" x2="186.17" y2="188.74" xlink:href="#linear-gradient"/><linearGradient id="linear-gradient-33" x1="45.5" y1="82.18" x2="45.5" y2="81.42" xlink:href="#linear-gradient"/><linearGradient id="linear-gradient-34" x1="172.43" y1="198.63" x2="172.43" y2="197.87" xlink:href="#linear-gradient"/><linearGradient id="linear-gradient-35" x1="52.3" y1="83.97" x2="52.3" y2="83.21" xlink:href="#linear-gradient"/><linearGradient id="linear-gradient-36" x1="199.89" y1="202.43" x2="199.89" y2="201.66" xlink:href="#linear-gradient"/><linearGradient id="linear-gradient-37" x1="177.33" y1="189.39" x2="177.33" y2="188.28" xlink:href="#linear-gradient"/><linearGradient id="linear-gradient-38" x1="167.27" y1="187.05" x2="167.27" y2="185.95" xlink:href="#linear-gradient"/><linearGradient id="linear-gradient-39" x1="157.26" y1="184.94" x2="157.26" y2="183.84" xlink:href="#linear-gradient"/><linearGradient id="linear-gradient-40" x1="149.23" y1="180.62" x2="149.23" y2="179.52" xlink:href="#linear-gradient"/><linearGradient id="linear-gradient-41" x1="144.16" y1="169.31" x2="144.16" y2="168.21" xlink:href="#linear-gradient"/><linearGradient id="linear-gradient-42" x1="144.21" y1="157.99" x2="144.21" y2="156.89" xlink:href="#linear-gradient"/><linearGradient id="linear-gradient-43" x1="164.08" y1="159.89" x2="164.08" y2="158.79" xlink:href="#linear-gradient"/><linearGradient id="linear-gradient-44" x1="180.22" y1="163.67" x2="180.22" y2="162.56" xlink:href="#linear-gradient"/><linearGradient id="linear-gradient-45" x1="195.36" y1="170.76" x2="195.36" y2="169.66" xlink:href="#linear-gradient"/><linearGradient id="linear-gradient-46" x1="94.24" y1="66.29" x2="94.24" y2="58.03" xlink:href="#linear-gradient"/><linearGradient id="linear-gradient-47" x1="225.09" y1="172.61" x2="225.09" y2="171.85" xlink:href="#linear-gradient"/><linearGradient id="linear-gradient-48" x1="237.02" y1="194.08" x2="237.02" y2="170.23" xlink:href="#linear-gradient"/><linearGradient id="linear-gradient-49" x1="233.22" y1="172.36" x2="233.22" y2="171.6" xlink:href="#linear-gradient"/><linearGradient id="linear-gradient-50" x1="238.5" y1="159.74" x2="238.5" y2="156.23" xlink:href="#linear-gradient"/><linearGradient id="linear-gradient-51" x1="104.08" y1="38.04" x2="104.08" y2="37.28" xlink:href="#linear-gradient"/><linearGradient id="linear-gradient-52" x1="219.03" y1="159.74" x2="219.03" y2="156.23" xlink:href="#linear-gradient"/><linearGradient id="linear-gradient-53" x1="219.03" y1="158.36" x2="219.03" y2="157.6" xlink:href="#linear-gradient"/><linearGradient id="linear-gradient-54" x1="233.22" y1="192.7" x2="233.22" y2="191.94" xlink:href="#linear-gradient"/><linearGradient id="linear-gradient-55" x1="238.78" y1="183.26" x2="238.78" y2="182.5" xlink:href="#linear-gradient"/><linearGradient id="linear-gradient-56" x1="234.86" y1="185.75" x2="234.86" y2="184.99" xlink:href="#linear-gradient"/><linearGradient id="linear-gradient-57" x1="88.73" y1="66.15" x2="88.73" y2="65.39" xlink:href="#linear-gradient"/><linearGradient id="linear-gradient-58" x1="219.51" y1="182.88" x2="219.51" y2="182.12" xlink:href="#linear-gradient"/><linearGradient id="linear-gradient-59" x1="225.9" y1="193.55" x2="225.9" y2="192.79" xlink:href="#linear-gradient"/><linearGradient id="linear-gradient-60" x1="221.83" y1="194.93" x2="221.83" y2="170.47" xlink:href="#linear-gradient"/><linearGradient id="linear-gradient-61" x1="229.15" y1="184.64" x2="229.15" y2="174.61" xlink:href="#linear-gradient"/><linearGradient id="linear-gradient-62" x1="229" y1="190.85" x2="229" y2="183.61" xlink:href="#linear-gradient"/></defs><title>logobee_svg</title><path class="cls-1" d="M323.07,152.84l-.06-.62-.62-.07c-2.82-.33-5.67-.53-8.49-.61a102.36,102.36,0,0,0-40.9,7.23,121.47,121.47,0,0,0-28.47,16.44,16.23,16.23,0,0,0-1.53-2.16l8.49-13.75,12.25-7.68a4.17,4.17,0,1,0-1.29-3,4.46,4.46,0,0,0,.05.63l-13,8.12-8.48,13.75a18,18,0,0,0-7.52-3.76,16.8,16.8,0,0,0,6-2.52c2.89-2,4.48-4.68,4.48-7.55,0-2.26-2-4.57-5.89-6.87a47.6,47.6,0,0,1,19.64-25.81,2.38,2.38,0,0,0,1.62.64,2.46,2.46,0,1,0-2.41-2.46,2.55,2.55,0,0,0,.27,1.14A48.5,48.5,0,0,0,237.33,150l-.85-.45a54.43,54.43,0,0,0-7.18-3.06l-.25-.08-.24.08a54.43,54.43,0,0,0-7.18,3.06c-.3.15-.58.31-.86.46a48.45,48.45,0,0,0-19.92-26.05,2.4,2.4,0,1,0-2.15,1.35,2.39,2.39,0,0,0,1.65-.67A47.65,47.65,0,0,1,220,150.42c-3.9,2.3-5.88,4.6-5.88,6.86,0,2.87,1.59,5.55,4.48,7.55a16.8,16.8,0,0,0,6,2.52,17.93,17.93,0,0,0-8.11,4.28L208,158l-12.77-8a4.17,4.17,0,1,0-1.48,2.23l12.3,7.71,8.51,13.79a13.77,13.77,0,0,0-1.13,1.72,121.93,121.93,0,0,0-28.72-16.63,102.31,102.31,0,0,0-40.89-7.23c-2.83.07-5.68.28-8.5.61l-.62.07-.06.62c-1.3,13.19,2.47,21.64,5.86,26.39,4.48,6.3,11.2,10.61,20.52,13.17a15.33,15.33,0,0,0,5.78,8.63c4.71,4,11,6.31,18.31,6.69.7,0,1.41.05,2.12.05A44.82,44.82,0,0,0,202.7,205l-2.43,1.48-3.31,2-.32.19-11.7,17a4.62,4.62,0,0,0-.65-.05,4.45,4.45,0,1,0,4.38,4.45,4.49,4.49,0,0,0-.76-2.5l11.21-16.26,3-1.83c4.57-2.79,11-6.18,17.92-10.45A27.49,27.49,0,0,0,213,208a46.46,46.46,0,0,0-2.94,7l-18.09,14-1.22,25.4a4.45,4.45,0,1,0,3.52,0l1.14-23.63,13.07-10.11A75,75,0,0,0,206.69,237,45.32,45.32,0,0,0,210,253.54a65.72,65.72,0,0,0,7.22,13.35,74.9,74.9,0,0,0,10.5,12.27l1.17,1,1.17-1a75.2,75.2,0,0,0,10.65-12.27,65.89,65.89,0,0,0,7.33-13.35A44.65,44.65,0,0,0,251.42,237a73.73,73.73,0,0,0-1.74-16.14l13,10,1.13,23.49a4.45,4.45,0,1,0,3.53,0l-1.22-25.26-18-13.91c-2-6-4.88-11-8.28-14.38l-.28-.27c6.3,3.71,12,6.56,16.25,9.14l3,1.83L270,227.77a4.36,4.36,0,1,0,3.62-2,4.62,4.62,0,0,0-.65.05l-11.7-17-.32-.19-3.31-2-2.83-1.73.2.08a44.61,44.61,0,0,0,15.48,2.77c.71,0,1.42,0,2.12-.06,7.27-.38,13.6-2.69,18.32-6.69a15.28,15.28,0,0,0,5.77-8.63c9.32-2.56,16-6.87,20.52-13.16C320.6,174.48,324.37,166,323.07,152.84Zm-56.45-7.13a2.9,2.9,0,1,1-2.9,2.9A2.9,2.9,0,0,1,266.62,145.71Zm-7.28-25a2,2,0,1,1-2,2A2,2,0,0,1,259.34,120.75Zm-60.64,4.11a2,2,0,1,1,2-2A2,2,0,0,1,198.7,124.86Zm-10.35,24a2.9,2.9,0,1,1,5.79,0,3,3,0,0,1-.3,1.29l-.3.47a2.89,2.89,0,0,1-5.19-1.76Zm-4.06,83.85a2.62,2.62,0,1,1,2.55-2.62A2.59,2.59,0,0,1,184.29,232.74Zm10.76,25.71a2.62,2.62,0,1,1-2.62-2.61A2.62,2.62,0,0,1,195.05,258.45Zm73.14,0a2.62,2.62,0,1,1-2.61-2.61A2.61,2.61,0,0,1,268.19,258.45Zm8-28.19a2.54,2.54,0,1,1-2.54-2.62A2.58,2.58,0,0,1,276.15,230.26Zm-33.73-73c0,2.46-1.47,4.69-3.85,6.31-2.75-1.87-4.17-4-4-5.94s1.69-3.5,4.45-4.79C241,154.24,242.42,155.77,242.42,157.28ZM229.05,148a46.56,46.56,0,0,1,9,4.2c-3.45,1.78-4.36,3.86-4.49,5.34-.19,2.25,1.25,4.58,4.07,6.6a18.52,18.52,0,0,1-17.19,0c2.83-2,4.27-4.36,4.08-6.61-.13-1.48-1-3.57-4.51-5.34A47,47,0,0,1,229.05,148Zm-13.36,9.26c0-1.51,1.43-3,3.4-4.43,2.77,1.29,4.31,3,4.47,4.8s-1.25,4.08-4,5.95C217.17,162,215.69,159.74,215.69,157.28Zm13.36,11.8c8.38,0,15.19,6,15.19,13.31s-6.81,13.31-15.19,13.31-15.18-6-15.18-13.31S220.68,169.08,229.05,169.08ZM242,194.22l-.13-.2a117.61,117.61,0,0,0,21.79,2c1.64,0,3.29,0,4.93-.1l-3.88,3Zm-13.25,68.26a3,3,0,1,1-3,3A3,3,0,0,1,228.71,262.48ZM193.08,199l-3.88-3c1.64.07,3.29.11,4.93.11A117.53,117.53,0,0,0,215.92,194l-.13.2ZM141.8,178.34c-3.18-4.46-6.71-12.36-5.63-24.71,2.56-.29,5.16-.46,7.73-.53,24.58-.65,47.12,7.11,68.87,23.72a14,14,0,0,0-1.16,5.57,14.52,14.52,0,0,0,4.08,10l-5.92-2.93c-1.35-1.89-1.58-2.18-1.81-2.47s-.44-.56-1.76-2.4l0-2.56h0V181a2.25,2.25,0,1,0-1,0l0,2.42h0c0,.36,0,.8,0,1.34v.17l.09.13c1.42,2,1.65,2.27,1.88,2.56s.28.35.7.92l-14-6.94c-.14-.89-.27-1.67-.39-2.41s-.26-1.58-.4-2.52l1.93-4.23a2.19,2.19,0,0,0,.36,0,2.24,2.24,0,1,0-1.28-.4l-2,4.45,0,.15c.15,1,.29,1.86.43,2.67.09.55.18,1.11.27,1.73l-8.48-4.2-3-11.76a2.24,2.24,0,0,0-1.05-4.22,2.25,2.25,0,0,0,0,4.49h.1l2.8,10.92-14.42-7.13-.36-5.73-1.79-2.14h0l-.59-.71a2.3,2.3,0,0,0,.36-1.22,2.24,2.24,0,1,0-2.24,2.24,2.22,2.22,0,0,0,1.17-.33l1.56,1.86h0l.56.67.31,4.84-21.33-10.55a2,2,0,0,0,.1-.64,2.24,2.24,0,1,0-2.24,2.24,2.21,2.21,0,0,0,1.66-.74l15.28,7.56-3.59,4-5.52-1c-1.82-.31-3.71-.63-5.65-1a2.25,2.25,0,1,0-.12,1q2.89.53,5.61,1l1,.17-.28,5-2.17,2.5a2.18,2.18,0,0,0-1.16-.33,2.24,2.24,0,1,0,2.24,2.24,2.21,2.21,0,0,0-.36-1.22l2.42-2.8.29-5.23c1.25.21,2.53.43,3.84.67l.27,0,4.14-4.58,12.74,6.3-4.53,7.36-6.05-1.37-5.77,3.25a2.24,2.24,0,1,0,1,1.89,2.29,2.29,0,0,0-.32-1.16l5.2-2.94,5.36,1.22L168,184.37a2.35,2.35,0,0,0-.71-.11,2.25,2.25,0,1,0,1.55.62l4.54-7.39,4.86,3.08-1.08,6a2.26,2.26,0,1,0,1,.14l1.19-6.65-5.42-3.44,1.81-3,22.12,10.94-3.1,4-3.15.09-3.21.1a2.24,2.24,0,1,0,0,1l3.24-.09,3.38-.1h.23l3.51-4.49,15.51,7.67a114.9,114.9,0,0,1-27.88,1.5C170,193.14,151.44,191.88,141.8,178.34Zm63.91,2.26a1.82,1.82,0,1,1,1.81-1.82A1.81,1.81,0,0,1,205.71,180.6ZM195,172l-.7-.32a1.8,1.8,0,0,1-.74-1.46,1.82,1.82,0,1,1,1.82,1.82A2.33,2.33,0,0,1,195,172Zm-14.76-7.06a1.82,1.82,0,1,1,1.82-1.81A1.82,1.82,0,0,1,180.22,164.93Zm-16.14-3.77a1.82,1.82,0,1,1,1.82-1.82A1.83,1.83,0,0,1,164.08,161.16Zm-19.87-1.9a1.82,1.82,0,1,1,1.82-1.82A1.83,1.83,0,0,1,144.21,159.26Zm1.76,9.5a1.82,1.82,0,1,1-1.81-1.82A1.82,1.82,0,0,1,146,168.76Zm5.08,11.31a1.82,1.82,0,1,1-1.82-1.81A1.82,1.82,0,0,1,151.05,180.07Zm8,4.32a1.82,1.82,0,1,1-1.82-1.81A1.82,1.82,0,0,1,159.08,184.39Zm10,2.11a1.82,1.82,0,1,1-1.82-1.82A1.81,1.81,0,0,1,169.09,186.5Zm8.24.52a1.82,1.82,0,1,1-1.82,1.82A1.82,1.82,0,0,1,177.33,187ZM188,189.29a1.82,1.82,0,1,1-1.82-1.81A1.82,1.82,0,0,1,188,189.29Zm-20.15,10.57a13.6,13.6,0,0,1-5-7,124.23,124.23,0,0,0,20.4,2.73l-9.47,1.88a1.54,1.54,0,0,0-2.88.77,1.55,1.55,0,1,0,3.09,0,1.5,1.5,0,0,0,0-.37l10.92-2.17,1.38.1,2.24.13,4.07,3.17-11.22,2.36a1.54,1.54,0,1,0,.15.66,1.15,1.15,0,0,0,0-.26l8.72-1.83.16,2L188,203a1.55,1.55,0,0,0-2.79.91,1.55,1.55,0,1,0,3.09,0,1.61,1.61,0,0,0-.09-.54l2.59-1.11-.18-2.31,13.31-2.79.07,1.65c-.53.35-1,.7-1.52,1s-1,.69-1.52,1a1.58,1.58,0,0,0-1-.39,1.55,1.55,0,1,0,1.55,1.55,1.48,1.48,0,0,0-.25-.83c.52-.35,1-.69,1.49-1s1-.73,1.61-1.09l.1-.07-.08-2,11.16-2.34c-1.9,2.84-4.46,5.48-13.27,8.84C194.52,206.5,178.64,209,167.84,199.86Zm5.86-1.61a1.27,1.27,0,1,1-1.27-1.26A1.26,1.26,0,0,1,173.7,198.25Zm7.46,3.68h0a1.27,1.27,0,0,1,0,.2,1.27,1.27,0,1,1-.07-.42Zm6.82,2a1.26,1.26,0,1,1-1.26-1.26A1.26,1.26,0,0,1,188,203.91Zm13.17-1.86a1.26,1.26,0,1,1-1.26-1.27A1.26,1.26,0,0,1,201.15,202.05Zm14.95-5.53s0,0,0,0l-.11.07Zm7.13.55h0l-.15.07ZM247.9,237c0,11.17-5.45,21.28-10,27.8a77.08,77.08,0,0,1-9,10.62,77.73,77.73,0,0,1-8.83-10.61c-4.5-6.52-9.87-16.64-9.87-27.81,0-20.15,7.91-36.68,17.81-37.65v10.26l-11.12,7.95-.2,9.14a2.38,2.38,0,1,0,1.27,0l.18-8.48,9.87-7.05v24.05l-7.78,6-1.17,9.44a2.38,2.38,0,1,0,1.26.16l1.1-8.92,6.59-5.07v24.73a4,4,0,1,0,1.27,0V248.79l4.29,1.11,1.11,3.16a2.38,2.38,0,1,0,1.23-.33l-1.37-3.89-5.26-1.37V219.58l9.89,7.06.18,8.52a2.39,2.39,0,1,0,1.27-.08l-.2-9.1-11.14-8v-13.4l3.49,1.51,2.17,5.24a2.38,2.38,0,1,0,1.5-.53,1.87,1.87,0,0,0-.34,0l-2.36-5.69-4.46-2v-3.92c2.75.1,5.52,1.48,8,4C243.85,209.79,247.9,222.7,247.9,237Zm-30.58-9.68a1.68,1.68,0,1,1-1.67,1.67A1.68,1.68,0,0,1,217.32,227.32Zm2.09,24a1.68,1.68,0,1,1-1.68,1.67A1.67,1.67,0,0,1,219.41,251.33Zm18.16,3.78a1.68,1.68,0,1,1-1.67-1.68A1.68,1.68,0,0,1,237.57,255.11Zm4.25-17.7a1.68,1.68,0,1,1-1.67-1.68A1.68,1.68,0,0,1,241.82,237.41Zm-5.37-25.87a1.68,1.68,0,1,1-1.68,1.68A1.68,1.68,0,0,1,236.45,211.54Zm53.46-11.69c-10.8,9.15-26.67,6.64-34.35,3.71-8.82-3.36-11.38-6-13.28-8.84l11.16,2.34-.08,2,.1.07c.57.36,1.1.74,1.61,1.1s1,.68,1.49,1a1.54,1.54,0,1,0,.28-.33c-.54-.34-1-.7-1.53-1s-1-.69-1.52-1l.07-1.65,13.31,2.8-.18,2.3,2.6,1.12a1.32,1.32,0,0,0-.1.53,1.54,1.54,0,1,0,.3-.91l-2.36-1,.16-1.95,8.72,1.83a1.15,1.15,0,0,0,0,.26,1.56,1.56,0,1,0,.15-.66l-11.21-2.36,4.06-3.17,2.24-.13,1.38-.09,10.92,2.17a1.42,1.42,0,0,0-.05.36,1.55,1.55,0,1,0,3.09,0,1.54,1.54,0,0,0-1.54-1.54,1.52,1.52,0,0,0-1.34.78l-9.47-1.89a124.23,124.23,0,0,0,20.4-2.73A13.55,13.55,0,0,1,289.91,199.85Zm-32.05.92A1.27,1.27,0,1,1,256.6,202,1.27,1.27,0,0,1,257.86,200.77ZM271,202.64a1.27,1.27,0,1,1-1.26,1.26A1.27,1.27,0,0,1,271,202.64Zm5.56-.72.05-.22a1.27,1.27,0,1,1-.07.42,1.34,1.34,0,0,1,0-.2Zm8.73-4.94a1.27,1.27,0,1,1-1.27,1.26A1.27,1.27,0,0,1,285.32,197ZM316,178.34c-9.64,13.53-28.18,14.79-44.54,15.91a114.93,114.93,0,0,1-27.88-1.5L259,185.08l3.51,4.49h.24l3.37.1,3.24.09a2.24,2.24,0,1,0,0-1l-3.21-.1-3.14-.09-3.1-4,22.11-10.94,1.81,2.95-5.42,3.44,1.19,6.65a2.24,2.24,0,1,0,1-.13l-1.09-6,4.86-3.08,4.54,7.39a2.22,2.22,0,0,0-.69,1.62,2.24,2.24,0,1,0,2.24-2.24,2.35,2.35,0,0,0-.71.11L288,181.5l5.36-1.22,5.21,2.94a2.21,2.21,0,0,0-.33,1.16,2.24,2.24,0,1,0,1-1.89l-5.77-3.25-6,1.37L283,173.25l12.73-6.3,4.15,4.58.27-.05c1.3-.24,2.58-.46,3.83-.67l.3,5.24,2.42,2.79a2.15,2.15,0,0,0-.37,1.23,2.24,2.24,0,1,0,2.24-2.25,2.27,2.27,0,0,0-1.16.33l-2.17-2.5-.28-5,1-.16c1.81-.31,3.68-.63,5.6-1a2.25,2.25,0,1,0-.11-1c-1.95.35-3.84.67-5.66,1l-5.52,1-3.59-4,15.28-7.57a2.24,2.24,0,1,0,1.66-3.74,2.25,2.25,0,0,0-2.24,2.24,2.2,2.2,0,0,0,.1.64l-21.33,10.55.31-4.83L291,163h0l1.49-1.79a2.27,2.27,0,0,0,1.17.33,2.26,2.26,0,1,0-1.87-1l-.66.78h0l-1.73,2.06-.36,5.73-14.42,7.13,2.8-10.92h.1a2.24,2.24,0,1,0-1-.26l-3,11.75L265,181c.09-.61.19-1.18.28-1.72.13-.82.27-1.67.42-2.68l0-.14-2-4.46a2.24,2.24,0,1,0-1.28.4,2.1,2.1,0,0,0,.36,0l1.93,4.23c-.14.94-.27,1.74-.4,2.52s-.25,1.52-.38,2.42l-14,6.93.7-.92c.23-.29.47-.59,1.88-2.56l.09-.13,0-2.89h0c0-.29,0-.63,0-1a2.23,2.23,0,1,0-1,0l0,2.45h0c0,.32,0,.71,0,1.17-1.31,1.84-1.54,2.13-1.76,2.4s-.46.59-1.81,2.47l-5.25,2.6a14.49,14.49,0,0,0,3.77-9.66,14,14,0,0,0-1.25-5.78c21.67-16.47,44.12-24.17,68.61-23.52,2.56.07,5.16.25,7.72.53C322.66,166,319.13,173.87,316,178.34Zm-46.18,10.94a1.82,1.82,0,1,1,1.81,1.82A1.81,1.81,0,0,1,269.77,189.28Zm12.47-.45a1.82,1.82,0,1,1-1.82-1.82A1.82,1.82,0,0,1,282.24,188.83Zm8.24-4.16a1.82,1.82,0,1,1-1.82,1.82A1.82,1.82,0,0,1,290.48,184.67Zm10-2.1a1.82,1.82,0,1,1-1.82,1.81A1.82,1.82,0,0,1,300.49,182.57Zm8-4.32a1.82,1.82,0,1,1-1.82,1.82A1.82,1.82,0,0,1,308.52,178.25Zm3.26-9.5a1.82,1.82,0,1,1,1.81,1.82A1.82,1.82,0,0,1,311.78,168.75Zm0-11.32a1.82,1.82,0,1,1,1.81,1.82A1.82,1.82,0,0,1,311.73,157.43Zm-19.87,1.9a1.82,1.82,0,1,1,1.81,1.82A1.82,1.82,0,0,1,291.86,159.33Zm-16.15,3.78a1.82,1.82,0,1,1,1.82,1.81A1.82,1.82,0,0,1,275.71,163.11ZM262.77,172a2.33,2.33,0,0,1-.38,0,1.82,1.82,0,1,1,1.82-1.82,1.8,1.8,0,0,1-.74,1.46Zm-12.54,6.79a1.82,1.82,0,1,1,1.82,1.82A1.81,1.81,0,0,1,250.23,178.77Z" transform="translate(-134.42 -120.32)"/><circle class="cls-2" cx="56.83" cy="28.56" r="0.96"/><circle class="cls-3" cx="132.2" cy="28.28" r="0.96"/><ellipse class="cls-4" cx="139.47" cy="109.94" rx="0.94" ry="0.96"/><ellipse class="cls-5" cx="49.73" cy="109.8" rx="0.94" ry="0.96"/><path class="cls-6" d="M259.34,123.39a.6.6,0,0,0,.59-.61.6.6,0,0,0-.59-.61.61.61,0,0,0-.6.61A.6.6,0,0,0,259.34,123.39Z" transform="translate(-134.42 -120.32)"/><ellipse class="cls-7" cx="64.28" cy="2.5" rx="0.6" ry="0.61"/><path class="cls-8" d="M191.48,258.46a1,1,0,0,0,1.91,0,1,1,0,1,0-1.91,0Z" transform="translate(-134.42 -120.32)"/><path class="cls-9" d="M264.62,258.46a1,1,0,1,0,1-1A1,1,0,0,0,264.62,258.46Z" transform="translate(-134.42 -120.32)"/><circle class="cls-10" cx="94.29" cy="145.19" r="0.96"/><path class="cls-11" d="M219.41,253.55A.55.55,0,0,0,220,253a.56.56,0,1,0-.55.55Z" transform="translate(-134.42 -120.32)"/><path class="cls-12" d="M235.9,255.66a.55.55,0,1,0,0-1.1.55.55,0,1,0,0,1.1Z" transform="translate(-134.42 -120.32)"/><path class="cls-13" d="M240.15,238a.55.55,0,0,0,0-1.1.55.55,0,0,0,0,1.1Z" transform="translate(-134.42 -120.32)"/><path class="cls-14" d="M217.32,229.54a.54.54,0,0,0,.55-.55.55.55,0,0,0-.55-.55.55.55,0,0,0-.55.55A.55.55,0,0,0,217.32,229.54Z" transform="translate(-134.42 -120.32)"/><path class="cls-15" d="M236.45,213.77a.55.55,0,0,0,.55-.55.55.55,0,0,0-.55-.55.55.55,0,0,0-.55.55A.54.54,0,0,0,236.45,213.77Z" transform="translate(-134.42 -120.32)"/><path class="cls-16" d="M252.05,178.22a.55.55,0,0,0-.55.55.54.54,0,0,0,.55.55.55.55,0,0,0,.55-.55A.55.55,0,0,0,252.05,178.22Z" transform="translate(-134.42 -120.32)"/><path class="cls-17" d="M271.58,189.84a.56.56,0,1,0-.55-.56A.56.56,0,0,0,271.58,189.84Z" transform="translate(-134.42 -120.32)"/><path class="cls-18" d="M277.83,202.5a.38.38,0,1,0-.38-.38A.38.38,0,0,0,277.83,202.5Z" transform="translate(-134.42 -120.32)"/><circle class="cls-19" cx="150.9" cy="77.92" r="0.38"/><path class="cls-20" d="M271,204.28a.38.38,0,1,0-.38-.38A.38.38,0,0,0,271,204.28Z" transform="translate(-134.42 -120.32)"/><path class="cls-21" d="M257.86,202.42a.38.38,0,1,0-.38-.38A.38.38,0,0,0,257.86,202.42Z" transform="translate(-134.42 -120.32)"/><circle class="cls-22" cx="146" cy="68.5" r="0.55"/><path class="cls-23" d="M290.48,187a.55.55,0,0,0,.55-.55.55.55,0,0,0-.55-.55.54.54,0,0,0-.55.55A.55.55,0,0,0,290.48,187Z" transform="translate(-134.42 -120.32)"/><path class="cls-24" d="M300.49,184.93a.55.55,0,0,0,.55-.55.55.55,0,0,0-.55-.55.55.55,0,0,0-.55.55A.54.54,0,0,0,300.49,184.93Z" transform="translate(-134.42 -120.32)"/><path class="cls-25" d="M308.52,180.62a.56.56,0,1,0-.55-.55A.55.55,0,0,0,308.52,180.62Z" transform="translate(-134.42 -120.32)"/><path class="cls-26" d="M313.59,169.3a.54.54,0,0,0,.55-.55.55.55,0,0,0-.55-.55.55.55,0,0,0-.55.55A.55.55,0,0,0,313.59,169.3Z" transform="translate(-134.42 -120.32)"/><path class="cls-27" d="M313.54,158a.54.54,0,0,0,.55-.55.55.55,0,0,0-.55-.55.55.55,0,0,0-.55.55A.55.55,0,0,0,313.54,158Z" transform="translate(-134.42 -120.32)"/><path class="cls-28" d="M294.22,159.33a.55.55,0,0,0-.55-.55.55.55,0,1,0,0,1.1A.55.55,0,0,0,294.22,159.33Z" transform="translate(-134.42 -120.32)"/><path class="cls-29" d="M278.08,163.11a.55.55,0,0,0-1.1,0,.55.55,0,1,0,1.1,0Z" transform="translate(-134.42 -120.32)"/><path class="cls-30" d="M262.39,169.65a.55.55,0,0,0-.55.55.55.55,0,1,0,1.1,0A.55.55,0,0,0,262.39,169.65Z" transform="translate(-134.42 -120.32)"/><path class="cls-31" d="M205.71,178.23a.56.56,0,0,0-.56.55.56.56,0,1,0,.56-.55Z" transform="translate(-134.42 -120.32)"/><path class="cls-32" d="M186.17,188.74a.55.55,0,0,0-.55.55.54.54,0,0,0,.55.55.55.55,0,0,0,.55-.55A.55.55,0,0,0,186.17,188.74Z" transform="translate(-134.42 -120.32)"/><circle class="cls-33" cx="45.5" cy="81.8" r="0.38"/><path class="cls-34" d="M172.43,197.87a.38.38,0,0,0,0,.76.38.38,0,1,0,0-.76Z" transform="translate(-134.42 -120.32)"/><circle class="cls-35" cx="52.3" cy="83.59" r="0.38"/><path class="cls-36" d="M199.89,201.66a.39.39,0,0,0-.38.39.38.38,0,0,0,.76,0A.39.39,0,0,0,199.89,201.66Z" transform="translate(-134.42 -120.32)"/><path class="cls-37" d="M177.33,189.39a.56.56,0,1,0-.55-.55A.55.55,0,0,0,177.33,189.39Z" transform="translate(-134.42 -120.32)"/><path class="cls-38" d="M166.72,186.5a.55.55,0,0,0,.55.55.55.55,0,0,0,.55-.55.54.54,0,0,0-.55-.55A.55.55,0,0,0,166.72,186.5Z" transform="translate(-134.42 -120.32)"/><path class="cls-39" d="M156.71,184.39a.55.55,0,0,0,.55.55.54.54,0,0,0,.55-.55.55.55,0,0,0-.55-.55A.55.55,0,0,0,156.71,184.39Z" transform="translate(-134.42 -120.32)"/><path class="cls-40" d="M148.68,180.07a.55.55,0,0,0,.55.55.54.54,0,0,0,.55-.55.55.55,0,0,0-.55-.55A.55.55,0,0,0,148.68,180.07Z" transform="translate(-134.42 -120.32)"/><path class="cls-41" d="M144.16,168.21a.55.55,0,0,0-.55.55.54.54,0,0,0,.55.55.55.55,0,0,0,.55-.55A.55.55,0,0,0,144.16,168.21Z" transform="translate(-134.42 -120.32)"/><path class="cls-42" d="M144.21,156.89a.55.55,0,0,0-.55.55.54.54,0,0,0,.55.55.55.55,0,0,0,.55-.55A.55.55,0,0,0,144.21,156.89Z" transform="translate(-134.42 -120.32)"/><path class="cls-43" d="M164.08,158.79a.55.55,0,1,0,0,1.1.55.55,0,1,0,0-1.1Z" transform="translate(-134.42 -120.32)"/><path class="cls-44" d="M180.22,162.56a.56.56,0,0,0,0,1.11.56.56,0,0,0,0-1.11Z" transform="translate(-134.42 -120.32)"/><path class="cls-45" d="M195.91,170.21a.55.55,0,0,0-.55-.55.55.55,0,1,0,0,1.1A.55.55,0,0,0,195.91,170.21Z" transform="translate(-134.42 -120.32)"/><circle class="cls-46" cx="94.24" cy="62.16" r="4.13"/><path class="cls-47" d="M225.09,172.61a.38.38,0,1,0-.38-.38A.38.38,0,0,0,225.09,172.61Z" transform="translate(-134.42 -120.32)"/><path class="cls-48" d="M233.22,173.74a1.76,1.76,0,0,0,1.62-1.1,10.22,10.22,0,0,1,7,8.27,10.35,10.35,0,0,1-6.91,10.86,1.76,1.76,0,1,0,.08.72,11.07,11.07,0,0,0,7.53-11.67,10.92,10.92,0,0,0-7.53-8.88,1.76,1.76,0,1,0-1.75,1.8Zm0,19.63a1.05,1.05,0,1,1,1.05-1.05A1,1,0,0,1,233.22,193.37Zm0-22.44a1.05,1.05,0,1,1-1.05,1A1,1,0,0,1,233.22,170.93Z" transform="translate(-134.42 -120.32)"/><path class="cls-49" d="M233.22,172.36a.38.38,0,1,0-.38-.38A.38.38,0,0,0,233.22,172.36Z" transform="translate(-134.42 -120.32)"/><path class="cls-50" d="M238.5,156.23a1.76,1.76,0,1,0,1.76,1.75A1.75,1.75,0,0,0,238.5,156.23Zm0,2.81a1.06,1.06,0,1,1,1.05-1.06A1.06,1.06,0,0,1,238.5,159Z" transform="translate(-134.42 -120.32)"/><circle class="cls-51" cx="104.08" cy="37.66" r="0.38"/><path class="cls-52" d="M220.79,158a1.76,1.76,0,1,0-1.76,1.76A1.75,1.75,0,0,0,220.79,158ZM218,158A1.05,1.05,0,1,1,219,159,1,1,0,0,1,218,158Z" transform="translate(-134.42 -120.32)"/><path class="cls-53" d="M219.41,158a.38.38,0,1,0-.38.38A.38.38,0,0,0,219.41,158Z" transform="translate(-134.42 -120.32)"/><path class="cls-54" d="M233.22,191.94a.38.38,0,1,0,.38.38A.38.38,0,0,0,233.22,191.94Z" transform="translate(-134.42 -120.32)"/><path class="cls-55" d="M238.4,182.88a.38.38,0,1,0,.38-.38A.38.38,0,0,0,238.4,182.88Z" transform="translate(-134.42 -120.32)"/><path class="cls-56" d="M234.91,185.74a.38.38,0,0,0,.33-.43.38.38,0,0,0-.76.11A.38.38,0,0,0,234.91,185.74Z" transform="translate(-134.42 -120.32)"/><circle class="cls-57" cx="88.73" cy="65.77" r="0.38"/><path class="cls-58" d="M219.51,182.12a.38.38,0,0,0,0,.76.38.38,0,1,0,0-.76Z" transform="translate(-134.42 -120.32)"/><path class="cls-59" d="M225.9,193.55a.38.38,0,1,0-.38-.38A.38.38,0,0,0,225.9,193.55Z" transform="translate(-134.42 -120.32)"/><path class="cls-60" d="M218,188.8a12.07,12.07,0,0,0,6.21,4.63,1.74,1.74,0,1,0,0-.72c-4.8-1.68-8-6.4-7.45-11.15a10.63,10.63,0,0,1,6.79-8.48,1.76,1.76,0,1,0-.22-.85,1,1,0,0,0,0,.17,11.36,11.36,0,0,0-7.28,9.08A10.85,10.85,0,0,0,218,188.8Zm7.94,3.32a1.05,1.05,0,1,1-1.05,1A1,1,0,0,1,225.9,192.12Zm-.81-20.94a1.05,1.05,0,1,1-1.05,1A1,1,0,0,1,225.09,171.18Z" transform="translate(-134.42 -120.32)"/><path class="cls-61" d="M219.71,180.75h-.2a1.76,1.76,0,1,0,.87.23,9.75,9.75,0,0,1,7.62-5.6,9.9,9.9,0,0,1,10,5.95,1.74,1.74,0,1,0,.79-.2h-.1a10.63,10.63,0,0,0-10.76-6.46A10.44,10.44,0,0,0,219.71,180.75Zm-.2,2.8a1.05,1.05,0,1,1,1.06-1.05A1,1,0,0,1,219.51,183.55Zm20.32-.67a1.05,1.05,0,1,1-1.05-1A1,1,0,0,1,239.83,182.88Z" transform="translate(-134.42 -120.32)"/><path class="cls-62" d="M234.66,187.11h.44a1.76,1.76,0,0,0,1.16-.68,1.72,1.72,0,0,0,.34-1.31,1.74,1.74,0,0,0-2-1.49,1.69,1.69,0,0,0-1.16.68,1.77,1.77,0,0,0-.34,1.3,1.79,1.79,0,0,0,.68,1.16l.19.12a5.57,5.57,0,0,1-9.81.62,1.76,1.76,0,0,0,.71-1.66,1.76,1.76,0,0,0-2-1.5,1.77,1.77,0,0,0-1.15.68,1.72,1.72,0,0,0-.34,1.31,1.74,1.74,0,0,0,1.73,1.51l.25,0,.15,0a6.46,6.46,0,0,0,5.42,3,6.2,6.2,0,0,0,5.7-3.74Zm-.64-2.38a1.08,1.08,0,0,1,.69-.41,1.06,1.06,0,0,1,1.19.9,1,1,0,0,1-.2.78,1.08,1.08,0,0,1-.69.41,1.05,1.05,0,0,1-1.19-.9A1,1,0,0,1,234,184.73Zm-11.51,2.2a1,1,0,0,1-.4-.69,1,1,0,0,1,.2-.78,1.06,1.06,0,0,1,.69-.41,1.05,1.05,0,0,1,1.19.9,1,1,0,0,1-.2.78,1.08,1.08,0,0,1-.7.41A1.09,1.09,0,0,1,222.51,186.93Z" transform="translate(-134.42 -120.32)"/></svg>