<svg id="Calque_1" data-name="Calque 1" xmlns="http://www.w3.org/2000/svg" xmlns:xlink="http://www.w3.org/1999/xlink" viewBox="0 0 429.72 364.91"><defs><style>.cls-1{fill:url(#linear-gradient);}.cls-2{fill:url(#linear-gradient-2);}</style><linearGradient id="linear-gradient" x1="250" y1="26.52" x2="250" y2="474.36" gradientUnits="userSpaceOnUse"><stop offset="0.21" stop-color="#054674"/><stop offset="0.47" stop-color="#0272ab"/><stop offset="0.7" stop-color="#0098da"/></linearGradient><linearGradient id="linear-gradient-2" x1="142.57" y1="26.52" x2="142.57" y2="474.36" xlink:href="#linear-gradient"/></defs><title>logobee2fico</title><path class="cls-1" d="M464.26,151.39v0l-.14-1.4-.15-1.53-2.93-.34c-6.4-.75-12.89-1.21-19.31-1.38-2.16-.06-4.32-.08-6.47-.08a231.59,231.59,0,0,0-86.49,16.51c-21.36,8.54-42,20.39-63,36.1-.51-.77-1-1.51-1.62-2.24l18.21-29.51,26.09-16.36a11.29,11.29,0,1,0-4.67-9.13c0,.14,0,.27,0,.41l-28.63,17.95L277,189.93a42.52,42.52,0,0,0-10-5.59,36.94,36.94,0,0,0,8-4.17,27.21,27.21,0,0,0,8-8.36,19.94,19.94,0,0,0,2.87-10.23c0-3.12-1.38-6.14-3.79-9a39,39,0,0,0-9.1-7.36A105.09,105.09,0,0,1,315,90.22a7.14,7.14,0,0,0,3.69,1,7.27,7.27,0,0,0,5.2-2.2,7.51,7.51,0,0,0,0-10.5,7.26,7.26,0,0,0-10.41,0,7.48,7.48,0,0,0-2.14,5.25,7.26,7.26,0,0,0,.23,1.82A110.67,110.67,0,0,0,268,142.39a122.19,122.19,0,0,0-16.43-7h0l-.55-.19-.6-.19-1.14.38h0a124.5,124.5,0,0,0-16.46,7A110.67,110.67,0,0,0,189.1,85.66a7.23,7.23,0,0,0,.21-1.75,7.5,7.5,0,0,0-2.14-5.25,7.26,7.26,0,0,0-10.41,0,7.51,7.51,0,0,0,0,10.5,7.23,7.23,0,0,0,9,1.13,105.14,105.14,0,0,1,42,55,38.78,38.78,0,0,0-9.07,7.36c-2.41,2.8-3.78,5.81-3.78,8.93a19.94,19.94,0,0,0,2.87,10.23,27.09,27.09,0,0,0,8,8.36,36.72,36.72,0,0,0,8.05,4.17A42.14,42.14,0,0,0,222.47,191l-18.05-29.27-28.06-17.59a10.59,10.59,0,0,0,.11-1.5,11.34,11.34,0,1,0-5.55,9.72l26.32,16.5,18.28,29.64c-.26.38-.54.76-.79,1.15-21.14-15.9-42-27.87-63.5-36.48a231.7,231.7,0,0,0-86.51-16.51c-2.15,0-4.3,0-6.45.08-6.42.17-12.92.63-19.31,1.38l-1.4.16-1.53.18-.29,2.93c-.41,4.19-.6,8.17-.6,12,0,23.5,7.36,39.34,14.15,48.85a70.14,70.14,0,0,0,19.56,18.5A99.34,99.34,0,0,0,95.6,242.34a39.57,39.57,0,0,0,5.51,11.49,45,45,0,0,0,7.79,7.87c11,9.32,25.7,14.66,42.41,15.53,1.62.08,3.25.13,4.9.13A105.67,105.67,0,0,0,177.87,275l-.83.51-.72.44-.34.21-26,37.72c-.17,0-.34,0-.52,0a11.62,11.62,0,0,0-8.33,3.51,12,12,0,0,0,0,16.85,11.64,11.64,0,0,0,16.67,0,12,12,0,0,0,2.07-14l24.36-35.37,6.4-3.91c7.52-4.59,17.36-10,28.31-16.34a77.85,77.85,0,0,0-6.54,10.39,105.07,105.07,0,0,0-6.57,15.44l-41,31.72-2.74,57.05a11.94,11.94,0,1,0,11.77.13l2.46-51.19L201,309.09a173.37,173.37,0,0,0-2.94,32.23,104.05,104.05,0,0,0,7.61,38,151,151,0,0,0,16.49,30.47,170.89,170.89,0,0,0,24,28l3.89,3.48,3.91-3.45a172.28,172.28,0,0,0,24.32-28A150,150,0,0,0,295,379.34a102.93,102.93,0,0,0,7.72-38,171.31,171.31,0,0,0-2.91-31.74l24.46,18.92,2.45,50.9a11.94,11.94,0,1,0,11.76-.15l-2.72-56.74L295,291a95.54,95.54,0,0,0-12.34-24.77c10.46,5.85,19.83,10.71,27.06,15.13l6.41,3.91,24.35,35.37a12,12,0,0,0,2.08,13.95,11.65,11.65,0,0,0,16.67,0,12,12,0,0,0,0-16.85,11.7,11.7,0,0,0-8.34-3.52c-.17,0-.34,0-.52,0l-26-37.71-1.06-.65-1.49-.91a105.29,105.29,0,0,0,22,2.38c1.65,0,3.28,0,4.9-.12,16.71-.88,31.41-6.21,42.41-15.53a45,45,0,0,0,7.79-7.87,39.57,39.57,0,0,0,5.51-11.49,99.13,99.13,0,0,0,26.74-11.63,70.18,70.18,0,0,0,19.57-18.5c6.79-9.51,14.16-25.35,14.15-48.85C464.86,159.56,464.67,155.58,464.26,151.39Z" transform="translate(-35.14 -76.36)"/><path class="cls-2" d="M249.26,135.4h0a124.5,124.5,0,0,0-16.46,7A110.67,110.67,0,0,0,189.1,85.66a7.23,7.23,0,0,0,.21-1.75,7.5,7.5,0,0,0-2.14-5.25,7.26,7.26,0,0,0-10.41,0,7.51,7.51,0,0,0,0,10.5,7.23,7.23,0,0,0,9,1.13,105.14,105.14,0,0,1,42,55,38.78,38.78,0,0,0-9.07,7.36c-2.41,2.8-3.78,5.81-3.78,8.93a19.94,19.94,0,0,0,2.87,10.23,27.09,27.09,0,0,0,8,8.36,36.72,36.72,0,0,0,8.05,4.17A42.14,42.14,0,0,0,222.47,191l-18.05-29.27-28.06-17.59a10.59,10.59,0,0,0,.11-1.5,11.34,11.34,0,1,0-5.55,9.72l26.32,16.5,18.28,29.64c-.26.38-.54.76-.79,1.15-21.14-15.9-42-27.87-63.5-36.48a231.7,231.7,0,0,0-86.51-16.51c-2.15,0-4.3,0-6.45.08-6.42.17-12.92.63-19.31,1.38l-1.4.16-1.53.18-.29,2.93c-.41,4.19-.6,8.17-.6,12,0,23.5,7.36,39.34,14.15,48.85a70.14,70.14,0,0,0,19.56,18.5A99.34,99.34,0,0,0,95.6,242.34a39.57,39.57,0,0,0,5.51,11.49,45,45,0,0,0,7.79,7.87c11,9.32,25.7,14.66,42.41,15.53,1.62.08,3.25.13,4.9.13A105.67,105.67,0,0,0,177.87,275l-.83.51-.72.44-.34.21-26,37.72c-.17,0-.34,0-.52,0a11.62,11.62,0,0,0-8.33,3.51,12,12,0,0,0,0,16.85,11.64,11.64,0,0,0,16.67,0,12,12,0,0,0,2.07-14l24.36-35.37,6.4-3.91c7.52-4.59,17.36-10,28.31-16.34a77.85,77.85,0,0,0-6.54,10.39,105.07,105.07,0,0,0-6.57,15.44l-41,31.72-2.74,57.05a11.94,11.94,0,1,0,11.77.13l2.46-51.19L201,309.09a173.37,173.37,0,0,0-2.94,32.23,104.05,104.05,0,0,0,7.61,38,151,151,0,0,0,16.49,30.47,170.89,170.89,0,0,0,24,28l3.85,3.44V135.15Z" transform="translate(-35.14 -76.36)"/></svg>